<svg id="svg" width="272" height="37" viewBox="0 0 272 37" fill="none" xmlns="http://www.w3.org/2000/svg">
<mask id="path-1-outside-1" maskUnits="userSpaceOnUse" x="0.524002" y="0.159973" width="272" height="37" fill="black">
<rect fill="white" x="0.524002" y="0.159973" width="272" height="37"/>
<path d="M30.864 26.972C31.176 26.972 31.416 27.116 31.584 27.404C31.776 27.692 31.872 28.088 31.872 28.592C31.872 29.528 31.644 30.272 31.188 30.824C29.844 32.432 28.536 33.56 27.264 34.208C26.016 34.856 24.504 35.18 22.728 35.18C21.48 35.18 20.328 35.024 19.272 34.712C18.216 34.4 16.932 33.932 15.42 33.308C14.052 32.708 12.732 32.216 11.46 31.832C10.236 34.064 8.4 35.18 5.952 35.18C4.608 35.18 3.54 34.88 2.748 34.28C1.932 33.656 1.524 32.864 1.524 31.904C1.524 30.728 2.088 29.756 3.216 28.988C4.344 28.196 5.844 27.8 7.716 27.8H8.184L8.832 17.324C8.976 14.924 9.408 12.944 10.128 11.384C10.848 9.82397 11.844 8.49197 13.116 7.38797C14.22 6.42797 15.48 5.70797 16.896 5.22797C18.312 4.72397 19.812 4.47197 21.396 4.47197C23.988 4.47197 25.98 5.14397 27.372 6.48797C28.764 7.83197 29.46 9.58397 29.46 11.744C29.46 13.208 29.196 14.396 28.668 15.308C28.14 16.196 27.408 16.64 26.472 16.64C25.8 16.64 25.272 16.484 24.888 16.172C24.504 15.836 24.312 15.368 24.312 14.768C24.312 14.552 24.36 14.156 24.456 13.58C24.6 12.908 24.672 12.308 24.672 11.78C24.672 10.772 24.372 9.97997 23.772 9.40397C23.196 8.80397 22.308 8.50397 21.108 8.50397C18.996 8.50397 17.364 9.19997 16.212 10.592C15.06 11.96 14.328 14.12 14.016 17.072L13.188 25.244C13.068 26.396 12.912 27.392 12.72 28.232C14.256 28.496 16.176 28.916 18.48 29.492C19.824 29.828 20.856 30.068 21.576 30.212C22.296 30.356 22.932 30.428 23.484 30.428C24.876 30.428 26.064 30.2 27.048 29.744C28.056 29.264 29.004 28.508 29.892 27.476C30.18 27.14 30.504 26.972 30.864 26.972Z"/>
<path d="M33.6667 15.848C32.6587 15.848 31.9027 15.62 31.3987 15.164C30.8947 14.684 30.6427 14.024 30.6427 13.184C30.6427 12.344 30.9667 11.648 31.6147 11.096C32.2867 10.52 33.1147 10.232 34.0987 10.232C34.9867 10.232 35.7067 10.448 36.2587 10.88C36.8107 11.312 37.0867 11.924 37.0867 12.716C37.0867 13.676 36.7747 14.444 36.1507 15.02C35.5267 15.572 34.6987 15.848 33.6667 15.848ZM33.3787 35.18C31.8187 35.18 30.6787 34.628 29.9587 33.524C29.2627 32.42 28.9147 30.956 28.9147 29.132C28.9147 28.052 29.0467 26.672 29.3107 24.992C29.5987 23.288 29.9587 21.704 30.3907 20.24C30.6067 19.472 30.8947 18.944 31.2547 18.656C31.6147 18.368 32.1907 18.224 32.9827 18.224C34.2067 18.224 34.8187 18.632 34.8187 19.448C34.8187 20.048 34.5907 21.44 34.1347 23.624C33.5587 26.264 33.2707 28.052 33.2707 28.988C33.2707 29.708 33.3667 30.26 33.5587 30.644C33.7507 31.028 34.0747 31.22 34.5307 31.22C34.9627 31.22 35.5027 30.92 36.1507 30.32C36.7987 29.72 37.6627 28.772 38.7427 27.476C39.0307 27.14 39.3547 26.972 39.7147 26.972C40.0267 26.972 40.2667 27.116 40.4347 27.404C40.6267 27.692 40.7227 28.088 40.7227 28.592C40.7227 29.552 40.4947 30.296 40.0387 30.824C37.6627 33.728 35.4427 35.18 33.3787 35.18Z"/>
<path d="M51.454 26.972C51.766 26.972 52.006 27.116 52.174 27.404C52.366 27.692 52.462 28.088 52.462 28.592C52.462 29.552 52.234 30.296 51.778 30.824C50.746 32.096 49.618 33.14 48.394 33.956C47.194 34.772 45.826 35.18 44.29 35.18C42.178 35.18 40.606 34.22 39.574 32.3C38.566 30.38 38.062 27.896 38.062 24.848C38.062 21.92 38.434 18.584 39.178 14.84C39.946 11.096 41.062 7.87997 42.526 5.19197C44.014 2.50397 45.778 1.15997 47.818 1.15997C48.97 1.15997 49.87 1.69997 50.518 2.77997C51.19 3.83597 51.526 5.35997 51.526 7.35197C51.526 10.208 50.734 13.52 49.15 17.288C47.566 21.056 45.418 24.788 42.706 28.484C42.874 29.468 43.15 30.176 43.534 30.608C43.918 31.016 44.422 31.22 45.046 31.22C46.03 31.22 46.894 30.944 47.638 30.392C48.382 29.816 49.33 28.844 50.482 27.476C50.77 27.14 51.094 26.972 51.454 26.972ZM47.026 4.72397C46.474 4.72397 45.85 5.71997 45.154 7.71198C44.458 9.70398 43.846 12.176 43.318 15.128C42.79 18.08 42.502 20.912 42.454 23.624C44.158 20.816 45.514 18.008 46.522 15.2C47.53 12.368 48.034 9.78797 48.034 7.45997C48.034 5.63597 47.698 4.72397 47.026 4.72397Z"/>
<path d="M54.2682 15.848C53.2602 15.848 52.5042 15.62 52.0002 15.164C51.4962 14.684 51.2442 14.024 51.2442 13.184C51.2442 12.344 51.5682 11.648 52.2162 11.096C52.8882 10.52 53.7162 10.232 54.7002 10.232C55.5882 10.232 56.3082 10.448 56.8602 10.88C57.4122 11.312 57.6882 11.924 57.6882 12.716C57.6882 13.676 57.3762 14.444 56.7522 15.02C56.1282 15.572 55.3002 15.848 54.2682 15.848ZM53.9802 35.18C52.4202 35.18 51.2802 34.628 50.5602 33.524C49.8642 32.42 49.5162 30.956 49.5162 29.132C49.5162 28.052 49.6482 26.672 49.9122 24.992C50.2002 23.288 50.5602 21.704 50.9922 20.24C51.2082 19.472 51.4962 18.944 51.8562 18.656C52.2162 18.368 52.7922 18.224 53.5842 18.224C54.8082 18.224 55.4202 18.632 55.4202 19.448C55.4202 20.048 55.1922 21.44 54.7362 23.624C54.1602 26.264 53.8722 28.052 53.8722 28.988C53.8722 29.708 53.9682 30.26 54.1602 30.644C54.3522 31.028 54.6762 31.22 55.1322 31.22C55.5642 31.22 56.1042 30.92 56.7522 30.32C57.4002 29.72 58.2642 28.772 59.3442 27.476C59.6322 27.14 59.9562 26.972 60.3162 26.972C60.6282 26.972 60.8682 27.116 61.0362 27.404C61.2282 27.692 61.3242 28.088 61.3242 28.592C61.3242 29.552 61.0962 30.296 60.6402 30.824C58.2642 33.728 56.0442 35.18 53.9802 35.18Z"/>
<path d="M62.8396 35.18C61.3516 35.18 60.1636 34.64 59.2756 33.56C58.3876 32.48 57.9436 31.064 57.9436 29.312C57.9436 27.392 58.3876 25.58 59.2756 23.876C60.1636 22.148 61.3396 20.768 62.8036 19.736C64.2916 18.68 65.8636 18.152 67.5196 18.152C68.0476 18.152 68.3956 18.26 68.5636 18.476C68.7556 18.668 68.9116 19.028 69.0316 19.556C69.5356 19.46 70.0636 19.412 70.6156 19.412C71.7916 19.412 72.3796 19.832 72.3796 20.672C72.3796 21.176 72.1996 22.376 71.8396 24.272C71.2876 27.032 71.0116 28.952 71.0116 30.032C71.0116 30.392 71.0956 30.68 71.2636 30.896C71.4556 31.112 71.6956 31.22 71.9836 31.22C72.4396 31.22 72.9916 30.932 73.6396 30.356C74.2876 29.756 75.1636 28.796 76.2676 27.476C76.5556 27.14 76.8796 26.972 77.2396 26.972C77.5516 26.972 77.7916 27.116 77.9596 27.404C78.1516 27.692 78.2476 28.088 78.2476 28.592C78.2476 29.552 78.0196 30.296 77.5636 30.824C76.5796 32.048 75.5356 33.08 74.4316 33.92C73.3276 34.76 72.2596 35.18 71.2276 35.18C70.4356 35.18 69.7036 34.916 69.0316 34.388C68.3836 33.836 67.8916 33.092 67.5556 32.156C66.3076 34.172 64.7356 35.18 62.8396 35.18ZM64.1356 31.544C64.6636 31.544 65.1676 31.232 65.6476 30.608C66.1276 29.984 66.4756 29.156 66.6916 28.124L68.0236 21.5C67.0156 21.524 66.0796 21.908 65.2156 22.652C64.3756 23.372 63.7036 24.332 63.1996 25.532C62.6956 26.732 62.4436 28.004 62.4436 29.348C62.4436 30.092 62.5876 30.644 62.8756 31.004C63.1876 31.364 63.6076 31.544 64.1356 31.544Z"/>
<path d="M77.8777 35.18C76.9657 35.18 76.3178 34.7 75.9338 33.74C75.5738 32.78 75.3938 31.244 75.3938 29.132C75.3938 26.012 75.8378 23.048 76.7258 20.24C76.9418 19.544 77.2898 19.04 77.7698 18.728C78.2738 18.392 78.9697 18.224 79.8577 18.224C80.3377 18.224 80.6738 18.284 80.8658 18.404C81.0578 18.524 81.1537 18.752 81.1537 19.088C81.1537 19.472 80.9737 20.336 80.6137 21.68C80.3737 22.64 80.1818 23.48 80.0378 24.2C79.8938 24.92 79.7737 25.808 79.6777 26.864C80.4697 24.8 81.3578 23.12 82.3418 21.824C83.3258 20.528 84.2857 19.604 85.2217 19.052C86.1817 18.5 87.0578 18.224 87.8498 18.224C89.4098 18.224 90.1898 19.004 90.1898 20.564C90.1898 21.5 89.9258 23.192 89.3978 25.64C88.9418 27.728 88.7138 29.108 88.7138 29.78C88.7138 30.74 89.0618 31.22 89.7578 31.22C90.2378 31.22 90.8018 30.932 91.4498 30.356C92.1218 29.756 93.0098 28.796 94.1138 27.476C94.4018 27.14 94.7257 26.972 95.0857 26.972C95.3977 26.972 95.6377 27.116 95.8057 27.404C95.9977 27.692 96.0938 28.088 96.0938 28.592C96.0938 29.552 95.8658 30.296 95.4098 30.824C94.3778 32.096 93.2618 33.14 92.0618 33.956C90.8858 34.772 89.5418 35.18 88.0298 35.18C86.8058 35.18 85.8818 34.832 85.2578 34.136C84.6338 33.416 84.3217 32.384 84.3217 31.04C84.3217 30.368 84.4898 29.168 84.8258 27.44C85.1378 25.928 85.2937 24.884 85.2937 24.308C85.2937 23.924 85.1618 23.732 84.8978 23.732C84.5858 23.732 84.1418 24.14 83.5658 24.956C83.0138 25.748 82.4378 26.804 81.8378 28.124C81.2618 29.444 80.7938 30.836 80.4338 32.3C80.1698 33.428 79.8577 34.196 79.4977 34.604C79.1617 34.988 78.6217 35.18 77.8777 35.18Z"/>
<path d="M95.7371 35.18C94.8251 35.18 94.1771 34.7 93.7931 33.74C93.4331 32.78 93.2531 31.244 93.2531 29.132C93.2531 26.012 93.6971 23.048 94.5851 20.24C94.8011 19.544 95.1491 19.04 95.6291 18.728C96.1331 18.392 96.8291 18.224 97.7171 18.224C98.1971 18.224 98.5331 18.284 98.7251 18.404C98.9171 18.524 99.0131 18.752 99.0131 19.088C99.0131 19.472 98.8331 20.336 98.4731 21.68C98.2331 22.64 98.0411 23.48 97.8971 24.2C97.7531 24.92 97.6331 25.808 97.5371 26.864C98.3291 24.8 99.2171 23.12 100.201 21.824C101.185 20.528 102.145 19.604 103.081 19.052C104.041 18.5 104.917 18.224 105.709 18.224C107.269 18.224 108.049 19.004 108.049 20.564C108.049 21.5 107.785 23.192 107.257 25.64C106.801 27.728 106.573 29.108 106.573 29.78C106.573 30.74 106.921 31.22 107.617 31.22C108.097 31.22 108.661 30.932 109.309 30.356C109.981 29.756 110.869 28.796 111.973 27.476C112.261 27.14 112.585 26.972 112.945 26.972C113.257 26.972 113.497 27.116 113.665 27.404C113.857 27.692 113.953 28.088 113.953 28.592C113.953 29.552 113.725 30.296 113.269 30.824C112.237 32.096 111.121 33.14 109.921 33.956C108.745 34.772 107.401 35.18 105.889 35.18C104.665 35.18 103.741 34.832 103.117 34.136C102.493 33.416 102.181 32.384 102.181 31.04C102.181 30.368 102.349 29.168 102.685 27.44C102.997 25.928 103.153 24.884 103.153 24.308C103.153 23.924 103.021 23.732 102.757 23.732C102.445 23.732 102.001 24.14 101.425 24.956C100.873 25.748 100.297 26.804 99.6971 28.124C99.1211 29.444 98.6531 30.836 98.2931 32.3C98.0291 33.428 97.7171 34.196 97.3571 34.604C97.0211 34.988 96.4811 35.18 95.7371 35.18Z"/>
<path d="M115.181 35.18C113.813 35.18 112.696 34.64 111.832 33.56C110.992 32.48 110.573 31.064 110.573 29.312C110.573 27.392 111.017 25.58 111.905 23.876C112.793 22.148 113.969 20.768 115.433 19.736C116.921 18.68 118.492 18.152 120.148 18.152C120.676 18.152 121.024 18.26 121.192 18.476C121.384 18.668 121.54 19.028 121.66 19.556C122.116 19.46 122.621 19.412 123.173 19.412C123.749 19.412 124.193 19.556 124.505 19.844C124.817 20.132 124.973 20.54 124.973 21.068C124.973 21.62 124.853 22.58 124.613 23.948C124.349 25.412 124.145 26.816 124.001 28.16C123.857 29.48 123.785 30.968 123.785 32.624C123.785 33.536 123.593 34.196 123.209 34.604C122.849 34.988 122.249 35.18 121.409 35.18C120.593 35.18 119.981 34.988 119.573 34.604C119.189 34.196 118.996 33.548 118.996 32.66L119.033 32.084C118.289 34.148 117.005 35.18 115.181 35.18ZM116.585 31.544C117.257 31.544 117.869 31.076 118.421 30.14C118.973 29.204 119.465 27.536 119.896 25.136L120.58 21.5C119.596 21.524 118.684 21.908 117.844 22.652C117.004 23.372 116.332 24.332 115.828 25.532C115.324 26.732 115.073 28.004 115.073 29.348C115.073 30.068 115.204 30.62 115.468 31.004C115.756 31.364 116.129 31.544 116.585 31.544Z"/>
<path d="M147.1 35.288C143.908 35.288 141.352 34.688 139.432 33.488C137.512 32.264 136.552 30.404 136.552 27.908C136.552 26.588 136.78 25.58 137.236 24.884C137.692 24.188 138.364 23.84 139.252 23.84C139.9 23.84 140.428 24.008 140.836 24.344C141.244 24.68 141.448 25.112 141.448 25.64C141.448 26.12 141.412 26.54 141.34 26.9C141.34 26.996 141.316 27.164 141.268 27.404C141.244 27.644 141.232 27.896 141.232 28.16C141.232 29.24 141.772 30.044 142.852 30.572C143.956 31.1 145.492 31.364 147.46 31.364C149.5 31.364 151.096 31.004 152.248 30.284C153.4 29.54 153.976 28.508 153.976 27.188C153.976 26.372 153.712 25.676 153.184 25.1C152.656 24.5 151.996 24.008 151.204 23.624C150.412 23.216 149.296 22.724 147.856 22.148C146.008 21.428 144.496 20.744 143.32 20.096C142.168 19.448 141.172 18.572 140.332 17.468C139.516 16.34 139.108 14.948 139.108 13.292C139.108 11.564 139.564 10.028 140.476 8.68398C141.412 7.33997 142.744 6.29597 144.472 5.55198C146.224 4.80797 148.276 4.43597 150.628 4.43597C152.38 4.43597 153.988 4.69997 155.452 5.22797C156.916 5.73197 158.08 6.51197 158.944 7.56797C159.832 8.62397 160.276 9.91997 160.276 11.456C160.276 12.968 160.048 14.108 159.592 14.876C159.136 15.644 158.464 16.028 157.576 16.028C156.952 16.028 156.424 15.836 155.992 15.452C155.584 15.068 155.38 14.612 155.38 14.084C155.38 13.628 155.416 13.208 155.488 12.824C155.56 12.104 155.596 11.648 155.596 11.456C155.596 10.448 155.104 9.67997 154.12 9.15197C153.136 8.62397 151.912 8.35998 150.448 8.35998C148.384 8.35998 146.8 8.74397 145.696 9.51197C144.616 10.256 144.076 11.312 144.076 12.68C144.076 13.592 144.352 14.372 144.904 15.02C145.48 15.668 146.188 16.208 147.028 16.64C147.868 17.072 149.044 17.588 150.556 18.188C152.38 18.932 153.844 19.604 154.948 20.204C156.052 20.804 156.988 21.62 157.756 22.652C158.548 23.684 158.944 24.956 158.944 26.468C158.944 29.3 157.864 31.484 155.704 33.02C153.568 34.532 150.7 35.288 147.1 35.288Z"/>
<path d="M177.721 26.972C178.033 26.972 178.273 27.116 178.441 27.404C178.633 27.692 178.73 28.088 178.73 28.592C178.73 29.552 178.502 30.296 178.046 30.824C177.014 32.096 175.885 33.14 174.661 33.956C173.437 34.772 172.033 35.18 170.449 35.18C165.553 35.18 163.105 31.736 163.105 24.848C163.105 23.792 163.142 22.724 163.214 21.644H161.809C161.089 21.644 160.597 21.512 160.333 21.248C160.093 20.984 159.973 20.564 159.973 19.988C159.973 18.644 160.514 17.972 161.594 17.972H163.646C164.054 15.332 164.678 12.92 165.518 10.736C166.358 8.55197 167.366 6.81197 168.542 5.51597C169.742 4.21997 171.025 3.57197 172.393 3.57197C173.401 3.57197 174.194 4.01597 174.77 4.90397C175.346 5.79197 175.633 6.90797 175.633 8.25197C175.633 11.972 174.074 15.212 170.954 17.972H174.986C175.37 17.972 175.646 18.056 175.814 18.224C175.982 18.392 176.066 18.704 176.066 19.16C176.066 20.816 174.709 21.644 171.997 21.644H167.605C167.557 22.844 167.533 23.78 167.533 24.452C167.533 26.948 167.822 28.7 168.398 29.708C168.998 30.716 169.934 31.22 171.206 31.22C172.238 31.22 173.149 30.908 173.941 30.284C174.733 29.66 175.669 28.724 176.749 27.476C177.037 27.14 177.361 26.972 177.721 26.972ZM171.421 7.02798C171.061 7.02798 170.653 7.48398 170.197 8.39598C169.765 9.28398 169.346 10.532 168.938 12.14C168.554 13.724 168.23 15.488 167.965 17.432C169.381 16.208 170.437 14.84 171.133 13.328C171.853 11.792 172.214 10.4 172.214 9.15197C172.214 7.73597 171.949 7.02798 171.421 7.02798Z"/>
<path d="M180.226 35.18C178.738 35.18 177.55 34.64 176.662 33.56C175.774 32.48 175.33 31.064 175.33 29.312C175.33 27.392 175.774 25.58 176.662 23.876C177.55 22.148 178.726 20.768 180.19 19.736C181.678 18.68 183.25 18.152 184.906 18.152C185.434 18.152 185.782 18.26 185.95 18.476C186.142 18.668 186.298 19.028 186.418 19.556C186.922 19.46 187.45 19.412 188.002 19.412C189.178 19.412 189.766 19.832 189.766 20.672C189.766 21.176 189.586 22.376 189.226 24.272C188.674 27.032 188.398 28.952 188.398 30.032C188.398 30.392 188.482 30.68 188.65 30.896C188.842 31.112 189.082 31.22 189.37 31.22C189.826 31.22 190.378 30.932 191.026 30.356C191.674 29.756 192.55 28.796 193.654 27.476C193.942 27.14 194.266 26.972 194.626 26.972C194.938 26.972 195.178 27.116 195.346 27.404C195.538 27.692 195.634 28.088 195.634 28.592C195.634 29.552 195.406 30.296 194.95 30.824C193.966 32.048 192.922 33.08 191.818 33.92C190.714 34.76 189.646 35.18 188.614 35.18C187.822 35.18 187.09 34.916 186.418 34.388C185.77 33.836 185.278 33.092 184.942 32.156C183.694 34.172 182.122 35.18 180.226 35.18ZM181.522 31.544C182.05 31.544 182.554 31.232 183.034 30.608C183.514 29.984 183.862 29.156 184.078 28.124L185.41 21.5C184.402 21.524 183.466 21.908 182.602 22.652C181.762 23.372 181.09 24.332 180.586 25.532C180.082 26.732 179.83 28.004 179.83 29.348C179.83 30.092 179.974 30.644 180.262 31.004C180.574 31.364 180.994 31.544 181.522 31.544Z"/>
<path d="M199.584 35.18C197.232 35.18 195.396 34.52 194.076 33.2C192.78 31.856 192.132 30.092 192.132 27.908C192.132 25.964 192.516 24.26 193.284 22.796C194.052 21.332 195.048 20.204 196.272 19.412C197.496 18.62 198.78 18.224 200.124 18.224C201.444 18.224 202.464 18.62 203.184 19.412C203.928 20.18 204.3 21.176 204.3 22.4C204.3 23.408 204.072 24.26 203.616 24.956C203.184 25.652 202.608 26 201.888 26C201.432 26 201.06 25.892 200.772 25.676C200.508 25.46 200.376 25.16 200.376 24.776C200.376 24.608 200.4 24.416 200.448 24.2C200.496 23.984 200.532 23.828 200.556 23.732C200.676 23.372 200.736 23.036 200.736 22.724C200.736 22.412 200.652 22.172 200.484 22.004C200.34 21.836 200.124 21.752 199.836 21.752C199.284 21.752 198.768 22.004 198.288 22.508C197.808 22.988 197.424 23.648 197.136 24.488C196.848 25.328 196.704 26.252 196.704 27.26C196.704 30.044 197.916 31.436 200.34 31.436C201.324 31.436 202.38 31.112 203.508 30.464C204.66 29.792 205.788 28.796 206.892 27.476C207.18 27.14 207.504 26.972 207.864 26.972C208.176 26.972 208.416 27.116 208.584 27.404C208.776 27.692 208.872 28.088 208.872 28.592C208.872 29.504 208.644 30.248 208.188 30.824C207.06 32.216 205.704 33.296 204.12 34.064C202.56 34.808 201.048 35.18 199.584 35.18Z"/>
<path d="M225.942 26.972C226.254 26.972 226.494 27.116 226.662 27.404C226.854 27.692 226.95 28.088 226.95 28.592C226.95 29.552 226.722 30.296 226.266 30.824C225.162 32.096 224.022 33.14 222.846 33.956C221.694 34.772 220.374 35.18 218.886 35.18C217.662 35.18 216.738 34.832 216.114 34.136C215.49 33.416 215.178 32.384 215.178 31.04C215.178 30.368 215.346 29.168 215.682 27.44C215.994 25.928 216.15 24.884 216.15 24.308C216.15 23.924 216.018 23.732 215.754 23.732C215.442 23.732 214.998 24.14 214.422 24.956C213.846 25.748 213.27 26.804 212.694 28.124C212.118 29.444 211.65 30.836 211.29 32.3C210.834 34.22 209.706 35.18 207.906 35.18C207.186 35.18 206.706 34.928 206.466 34.424C206.25 33.896 206.142 32.96 206.142 31.616C206.142 30.848 206.154 30.236 206.178 29.78L206.214 26.9C206.214 23.204 206.586 19.352 207.33 15.344C208.098 11.336 209.214 7.97597 210.678 5.26397C212.166 2.52797 213.942 1.15997 216.006 1.15997C217.11 1.15997 217.998 1.63997 218.67 2.59997C219.366 3.53597 219.714 4.75997 219.714 6.27197C219.714 8.69597 219.006 11.216 217.59 13.832C216.174 16.424 213.87 19.46 210.678 22.94C210.606 24.188 210.57 25.472 210.57 26.792C211.362 24.752 212.238 23.096 213.198 21.824C214.182 20.528 215.142 19.604 216.078 19.052C217.038 18.5 217.914 18.224 218.706 18.224C220.266 18.224 221.046 19.004 221.046 20.564C221.046 21.5 220.782 23.192 220.254 25.64C219.798 27.728 219.57 29.108 219.57 29.78C219.57 30.74 219.918 31.22 220.614 31.22C221.094 31.22 221.658 30.932 222.306 30.356C222.978 29.756 223.866 28.796 224.97 27.476C225.258 27.14 225.582 26.972 225.942 26.972ZM215.25 4.72397C214.818 4.72397 214.338 5.34797 213.81 6.59597C213.282 7.81997 212.766 9.48797 212.262 11.6C211.782 13.688 211.386 15.968 211.074 18.44C212.562 16.688 213.786 14.78 214.746 12.716C215.73 10.652 216.222 8.77997 216.222 7.09997C216.222 6.33197 216.138 5.74397 215.97 5.33597C215.802 4.92797 215.562 4.72397 215.25 4.72397Z"/>
<path d="M227.705 35.18C226.625 35.18 225.737 34.688 225.041 33.704C224.369 32.696 224.033 31.448 224.033 29.96C224.033 28.16 224.153 26.516 224.393 25.028C224.633 23.516 225.029 21.92 225.581 20.24C225.821 19.52 226.157 19.004 226.589 18.692C227.021 18.38 227.705 18.224 228.641 18.224C229.169 18.224 229.529 18.308 229.721 18.476C229.937 18.644 230.045 18.896 230.045 19.232C230.045 19.424 229.913 20.072 229.649 21.176C229.409 22.064 229.217 22.868 229.073 23.588C228.593 26.108 228.353 27.788 228.353 28.628C228.353 29.132 228.413 29.492 228.533 29.708C228.653 29.9 228.845 29.996 229.109 29.996C229.469 29.996 229.913 29.636 230.441 28.916C230.993 28.196 231.569 27.104 232.169 25.64C232.793 24.176 233.393 22.376 233.969 20.24C234.161 19.52 234.449 19.004 234.833 18.692C235.241 18.38 235.841 18.224 236.633 18.224C237.185 18.224 237.569 18.296 237.785 18.44C238.001 18.56 238.109 18.8 238.109 19.16C238.109 19.76 237.809 21.404 237.209 24.092C236.537 27.164 236.201 29.06 236.201 29.78C236.201 30.236 236.297 30.596 236.489 30.86C236.681 31.1 236.933 31.22 237.245 31.22C237.725 31.22 238.289 30.932 238.937 30.356C239.609 29.756 240.497 28.796 241.601 27.476C241.889 27.14 242.213 26.972 242.573 26.972C242.885 26.972 243.125 27.116 243.293 27.404C243.485 27.692 243.581 28.088 243.581 28.592C243.581 29.552 243.353 30.296 242.897 30.824C241.865 32.096 240.749 33.14 239.549 33.956C238.373 34.772 237.029 35.18 235.517 35.18C234.365 35.18 233.513 34.736 232.961 33.848C232.433 32.96 232.169 31.712 232.169 30.104C231.761 31.736 231.149 32.996 230.333 33.884C229.517 34.748 228.641 35.18 227.705 35.18Z"/>
<path d="M243.218 35.18C242.306 35.18 241.658 34.7 241.274 33.74C240.914 32.78 240.734 31.244 240.734 29.132C240.734 26.012 241.178 23.048 242.066 20.24C242.282 19.544 242.63 19.04 243.11 18.728C243.614 18.392 244.31 18.224 245.198 18.224C245.678 18.224 246.014 18.284 246.206 18.404C246.398 18.524 246.494 18.752 246.494 19.088C246.494 19.472 246.314 20.336 245.954 21.68C245.714 22.64 245.522 23.48 245.378 24.2C245.234 24.92 245.114 25.808 245.018 26.864C245.81 24.8 246.698 23.12 247.682 21.824C248.666 20.528 249.626 19.604 250.562 19.052C251.522 18.5 252.398 18.224 253.19 18.224C254.75 18.224 255.53 19.004 255.53 20.564C255.53 20.876 255.422 21.632 255.206 22.832C255.014 23.792 254.918 24.392 254.918 24.632C254.918 25.472 255.218 25.892 255.818 25.892C256.49 25.892 257.354 25.364 258.41 24.308C258.722 23.996 259.046 23.84 259.382 23.84C259.694 23.84 259.934 23.984 260.102 24.272C260.294 24.536 260.39 24.896 260.39 25.352C260.39 26.24 260.15 26.936 259.67 27.44C258.998 28.136 258.206 28.736 257.294 29.24C256.406 29.72 255.458 29.96 254.45 29.96C253.178 29.96 252.206 29.636 251.534 28.988C250.886 28.34 250.562 27.464 250.562 26.36C250.562 26 250.598 25.64 250.67 25.28C250.718 24.8 250.742 24.476 250.742 24.308C250.742 23.924 250.61 23.732 250.346 23.732C249.986 23.732 249.506 24.14 248.906 24.956C248.33 25.748 247.754 26.804 247.178 28.124C246.602 29.444 246.134 30.836 245.774 32.3C245.51 33.428 245.198 34.196 244.838 34.604C244.502 34.988 243.962 35.18 243.218 35.18Z"/>
<path d="M261.184 35.18C259.816 35.18 258.7 34.64 257.836 33.56C256.996 32.48 256.576 31.064 256.576 29.312C256.576 27.392 257.02 25.58 257.908 23.876C258.796 22.148 259.972 20.768 261.436 19.736C262.924 18.68 264.496 18.152 266.152 18.152C266.68 18.152 267.028 18.26 267.196 18.476C267.388 18.668 267.544 19.028 267.664 19.556C268.12 19.46 268.624 19.412 269.176 19.412C269.752 19.412 270.196 19.556 270.508 19.844C270.82 20.132 270.976 20.54 270.976 21.068C270.976 21.62 270.856 22.58 270.616 23.948C270.352 25.412 270.148 26.816 270.004 28.16C269.86 29.48 269.788 30.968 269.788 32.624C269.788 33.536 269.596 34.196 269.212 34.604C268.852 34.988 268.252 35.18 267.412 35.18C266.596 35.18 265.984 34.988 265.576 34.604C265.192 34.196 265 33.548 265 32.66L265.036 32.084C264.292 34.148 263.008 35.18 261.184 35.18ZM262.588 31.544C263.26 31.544 263.872 31.076 264.424 30.14C264.976 29.204 265.468 27.536 265.9 25.136L266.584 21.5C265.6 21.524 264.688 21.908 263.848 22.652C263.008 23.372 262.336 24.332 261.832 25.532C261.328 26.732 261.076 28.004 261.076 29.348C261.076 30.068 261.208 30.62 261.472 31.004C261.76 31.364 262.132 31.544 262.588 31.544Z"/>
</mask>
<path d="M30.864 26.972C31.176 26.972 31.416 27.116 31.584 27.404C31.776 27.692 31.872 28.088 31.872 28.592C31.872 29.528 31.644 30.272 31.188 30.824C29.844 32.432 28.536 33.56 27.264 34.208C26.016 34.856 24.504 35.18 22.728 35.18C21.48 35.18 20.328 35.024 19.272 34.712C18.216 34.4 16.932 33.932 15.42 33.308C14.052 32.708 12.732 32.216 11.46 31.832C10.236 34.064 8.4 35.18 5.952 35.18C4.608 35.18 3.54 34.88 2.748 34.28C1.932 33.656 1.524 32.864 1.524 31.904C1.524 30.728 2.088 29.756 3.216 28.988C4.344 28.196 5.844 27.8 7.716 27.8H8.184L8.832 17.324C8.976 14.924 9.408 12.944 10.128 11.384C10.848 9.82397 11.844 8.49197 13.116 7.38797C14.22 6.42797 15.48 5.70797 16.896 5.22797C18.312 4.72397 19.812 4.47197 21.396 4.47197C23.988 4.47197 25.98 5.14397 27.372 6.48797C28.764 7.83197 29.46 9.58397 29.46 11.744C29.46 13.208 29.196 14.396 28.668 15.308C28.14 16.196 27.408 16.64 26.472 16.64C25.8 16.64 25.272 16.484 24.888 16.172C24.504 15.836 24.312 15.368 24.312 14.768C24.312 14.552 24.36 14.156 24.456 13.58C24.6 12.908 24.672 12.308 24.672 11.78C24.672 10.772 24.372 9.97997 23.772 9.40397C23.196 8.80397 22.308 8.50397 21.108 8.50397C18.996 8.50397 17.364 9.19997 16.212 10.592C15.06 11.96 14.328 14.12 14.016 17.072L13.188 25.244C13.068 26.396 12.912 27.392 12.72 28.232C14.256 28.496 16.176 28.916 18.48 29.492C19.824 29.828 20.856 30.068 21.576 30.212C22.296 30.356 22.932 30.428 23.484 30.428C24.876 30.428 26.064 30.2 27.048 29.744C28.056 29.264 29.004 28.508 29.892 27.476C30.18 27.14 30.504 26.972 30.864 26.972Z" stroke="#EAE0D5" stroke-width="2" mask="url(#path-1-outside-1)"/>
<path d="M33.6667 15.848C32.6587 15.848 31.9027 15.62 31.3987 15.164C30.8947 14.684 30.6427 14.024 30.6427 13.184C30.6427 12.344 30.9667 11.648 31.6147 11.096C32.2867 10.52 33.1147 10.232 34.0987 10.232C34.9867 10.232 35.7067 10.448 36.2587 10.88C36.8107 11.312 37.0867 11.924 37.0867 12.716C37.0867 13.676 36.7747 14.444 36.1507 15.02C35.5267 15.572 34.6987 15.848 33.6667 15.848ZM33.3787 35.18C31.8187 35.18 30.6787 34.628 29.9587 33.524C29.2627 32.42 28.9147 30.956 28.9147 29.132C28.9147 28.052 29.0467 26.672 29.3107 24.992C29.5987 23.288 29.9587 21.704 30.3907 20.24C30.6067 19.472 30.8947 18.944 31.2547 18.656C31.6147 18.368 32.1907 18.224 32.9827 18.224C34.2067 18.224 34.8187 18.632 34.8187 19.448C34.8187 20.048 34.5907 21.44 34.1347 23.624C33.5587 26.264 33.2707 28.052 33.2707 28.988C33.2707 29.708 33.3667 30.26 33.5587 30.644C33.7507 31.028 34.0747 31.22 34.5307 31.22C34.9627 31.22 35.5027 30.92 36.1507 30.32C36.7987 29.72 37.6627 28.772 38.7427 27.476C39.0307 27.14 39.3547 26.972 39.7147 26.972C40.0267 26.972 40.2667 27.116 40.4347 27.404C40.6267 27.692 40.7227 28.088 40.7227 28.592C40.7227 29.552 40.4947 30.296 40.0387 30.824C37.6627 33.728 35.4427 35.18 33.3787 35.18Z" stroke="#EAE0D5" stroke-width="2" mask="url(#path-1-outside-1)"/>
<path d="M51.454 26.972C51.766 26.972 52.006 27.116 52.174 27.404C52.366 27.692 52.462 28.088 52.462 28.592C52.462 29.552 52.234 30.296 51.778 30.824C50.746 32.096 49.618 33.14 48.394 33.956C47.194 34.772 45.826 35.18 44.29 35.18C42.178 35.18 40.606 34.22 39.574 32.3C38.566 30.38 38.062 27.896 38.062 24.848C38.062 21.92 38.434 18.584 39.178 14.84C39.946 11.096 41.062 7.87997 42.526 5.19197C44.014 2.50397 45.778 1.15997 47.818 1.15997C48.97 1.15997 49.87 1.69997 50.518 2.77997C51.19 3.83597 51.526 5.35997 51.526 7.35197C51.526 10.208 50.734 13.52 49.15 17.288C47.566 21.056 45.418 24.788 42.706 28.484C42.874 29.468 43.15 30.176 43.534 30.608C43.918 31.016 44.422 31.22 45.046 31.22C46.03 31.22 46.894 30.944 47.638 30.392C48.382 29.816 49.33 28.844 50.482 27.476C50.77 27.14 51.094 26.972 51.454 26.972ZM47.026 4.72397C46.474 4.72397 45.85 5.71997 45.154 7.71198C44.458 9.70398 43.846 12.176 43.318 15.128C42.79 18.08 42.502 20.912 42.454 23.624C44.158 20.816 45.514 18.008 46.522 15.2C47.53 12.368 48.034 9.78797 48.034 7.45997C48.034 5.63597 47.698 4.72397 47.026 4.72397Z" stroke="#EAE0D5" stroke-width="2" mask="url(#path-1-outside-1)"/>
<path d="M54.2682 15.848C53.2602 15.848 52.5042 15.62 52.0002 15.164C51.4962 14.684 51.2442 14.024 51.2442 13.184C51.2442 12.344 51.5682 11.648 52.2162 11.096C52.8882 10.52 53.7162 10.232 54.7002 10.232C55.5882 10.232 56.3082 10.448 56.8602 10.88C57.4122 11.312 57.6882 11.924 57.6882 12.716C57.6882 13.676 57.3762 14.444 56.7522 15.02C56.1282 15.572 55.3002 15.848 54.2682 15.848ZM53.9802 35.18C52.4202 35.18 51.2802 34.628 50.5602 33.524C49.8642 32.42 49.5162 30.956 49.5162 29.132C49.5162 28.052 49.6482 26.672 49.9122 24.992C50.2002 23.288 50.5602 21.704 50.9922 20.24C51.2082 19.472 51.4962 18.944 51.8562 18.656C52.2162 18.368 52.7922 18.224 53.5842 18.224C54.8082 18.224 55.4202 18.632 55.4202 19.448C55.4202 20.048 55.1922 21.44 54.7362 23.624C54.1602 26.264 53.8722 28.052 53.8722 28.988C53.8722 29.708 53.9682 30.26 54.1602 30.644C54.3522 31.028 54.6762 31.22 55.1322 31.22C55.5642 31.22 56.1042 30.92 56.7522 30.32C57.4002 29.72 58.2642 28.772 59.3442 27.476C59.6322 27.14 59.9562 26.972 60.3162 26.972C60.6282 26.972 60.8682 27.116 61.0362 27.404C61.2282 27.692 61.3242 28.088 61.3242 28.592C61.3242 29.552 61.0962 30.296 60.6402 30.824C58.2642 33.728 56.0442 35.18 53.9802 35.18Z" stroke="#EAE0D5" stroke-width="2" mask="url(#path-1-outside-1)"/>
<path d="M62.8396 35.18C61.3516 35.18 60.1636 34.64 59.2756 33.56C58.3876 32.48 57.9436 31.064 57.9436 29.312C57.9436 27.392 58.3876 25.58 59.2756 23.876C60.1636 22.148 61.3396 20.768 62.8036 19.736C64.2916 18.68 65.8636 18.152 67.5196 18.152C68.0476 18.152 68.3956 18.26 68.5636 18.476C68.7556 18.668 68.9116 19.028 69.0316 19.556C69.5356 19.46 70.0636 19.412 70.6156 19.412C71.7916 19.412 72.3796 19.832 72.3796 20.672C72.3796 21.176 72.1996 22.376 71.8396 24.272C71.2876 27.032 71.0116 28.952 71.0116 30.032C71.0116 30.392 71.0956 30.68 71.2636 30.896C71.4556 31.112 71.6956 31.22 71.9836 31.22C72.4396 31.22 72.9916 30.932 73.6396 30.356C74.2876 29.756 75.1636 28.796 76.2676 27.476C76.5556 27.14 76.8796 26.972 77.2396 26.972C77.5516 26.972 77.7916 27.116 77.9596 27.404C78.1516 27.692 78.2476 28.088 78.2476 28.592C78.2476 29.552 78.0196 30.296 77.5636 30.824C76.5796 32.048 75.5356 33.08 74.4316 33.92C73.3276 34.76 72.2596 35.18 71.2276 35.18C70.4356 35.18 69.7036 34.916 69.0316 34.388C68.3836 33.836 67.8916 33.092 67.5556 32.156C66.3076 34.172 64.7356 35.18 62.8396 35.18ZM64.1356 31.544C64.6636 31.544 65.1676 31.232 65.6476 30.608C66.1276 29.984 66.4756 29.156 66.6916 28.124L68.0236 21.5C67.0156 21.524 66.0796 21.908 65.2156 22.652C64.3756 23.372 63.7036 24.332 63.1996 25.532C62.6956 26.732 62.4436 28.004 62.4436 29.348C62.4436 30.092 62.5876 30.644 62.8756 31.004C63.1876 31.364 63.6076 31.544 64.1356 31.544Z" stroke="#EAE0D5" stroke-width="2" mask="url(#path-1-outside-1)"/>
<path d="M77.8777 35.18C76.9657 35.18 76.3178 34.7 75.9338 33.74C75.5738 32.78 75.3938 31.244 75.3938 29.132C75.3938 26.012 75.8378 23.048 76.7258 20.24C76.9418 19.544 77.2898 19.04 77.7698 18.728C78.2738 18.392 78.9697 18.224 79.8577 18.224C80.3377 18.224 80.6738 18.284 80.8658 18.404C81.0578 18.524 81.1537 18.752 81.1537 19.088C81.1537 19.472 80.9737 20.336 80.6137 21.68C80.3737 22.64 80.1818 23.48 80.0378 24.2C79.8938 24.92 79.7737 25.808 79.6777 26.864C80.4697 24.8 81.3578 23.12 82.3418 21.824C83.3258 20.528 84.2857 19.604 85.2217 19.052C86.1817 18.5 87.0578 18.224 87.8498 18.224C89.4098 18.224 90.1898 19.004 90.1898 20.564C90.1898 21.5 89.9258 23.192 89.3978 25.64C88.9418 27.728 88.7138 29.108 88.7138 29.78C88.7138 30.74 89.0618 31.22 89.7578 31.22C90.2378 31.22 90.8018 30.932 91.4498 30.356C92.1218 29.756 93.0098 28.796 94.1138 27.476C94.4018 27.14 94.7257 26.972 95.0857 26.972C95.3977 26.972 95.6377 27.116 95.8057 27.404C95.9977 27.692 96.0938 28.088 96.0938 28.592C96.0938 29.552 95.8658 30.296 95.4098 30.824C94.3778 32.096 93.2618 33.14 92.0618 33.956C90.8858 34.772 89.5418 35.18 88.0298 35.18C86.8058 35.18 85.8818 34.832 85.2578 34.136C84.6338 33.416 84.3217 32.384 84.3217 31.04C84.3217 30.368 84.4898 29.168 84.8258 27.44C85.1378 25.928 85.2937 24.884 85.2937 24.308C85.2937 23.924 85.1618 23.732 84.8978 23.732C84.5858 23.732 84.1418 24.14 83.5658 24.956C83.0138 25.748 82.4378 26.804 81.8378 28.124C81.2618 29.444 80.7938 30.836 80.4338 32.3C80.1698 33.428 79.8577 34.196 79.4977 34.604C79.1617 34.988 78.6217 35.18 77.8777 35.18Z" stroke="#EAE0D5" stroke-width="2" mask="url(#path-1-outside-1)"/>
<path d="M95.7371 35.18C94.8251 35.18 94.1771 34.7 93.7931 33.74C93.4331 32.78 93.2531 31.244 93.2531 29.132C93.2531 26.012 93.6971 23.048 94.5851 20.24C94.8011 19.544 95.1491 19.04 95.6291 18.728C96.1331 18.392 96.8291 18.224 97.7171 18.224C98.1971 18.224 98.5331 18.284 98.7251 18.404C98.9171 18.524 99.0131 18.752 99.0131 19.088C99.0131 19.472 98.8331 20.336 98.4731 21.68C98.2331 22.64 98.0411 23.48 97.8971 24.2C97.7531 24.92 97.6331 25.808 97.5371 26.864C98.3291 24.8 99.2171 23.12 100.201 21.824C101.185 20.528 102.145 19.604 103.081 19.052C104.041 18.5 104.917 18.224 105.709 18.224C107.269 18.224 108.049 19.004 108.049 20.564C108.049 21.5 107.785 23.192 107.257 25.64C106.801 27.728 106.573 29.108 106.573 29.78C106.573 30.74 106.921 31.22 107.617 31.22C108.097 31.22 108.661 30.932 109.309 30.356C109.981 29.756 110.869 28.796 111.973 27.476C112.261 27.14 112.585 26.972 112.945 26.972C113.257 26.972 113.497 27.116 113.665 27.404C113.857 27.692 113.953 28.088 113.953 28.592C113.953 29.552 113.725 30.296 113.269 30.824C112.237 32.096 111.121 33.14 109.921 33.956C108.745 34.772 107.401 35.18 105.889 35.18C104.665 35.18 103.741 34.832 103.117 34.136C102.493 33.416 102.181 32.384 102.181 31.04C102.181 30.368 102.349 29.168 102.685 27.44C102.997 25.928 103.153 24.884 103.153 24.308C103.153 23.924 103.021 23.732 102.757 23.732C102.445 23.732 102.001 24.14 101.425 24.956C100.873 25.748 100.297 26.804 99.6971 28.124C99.1211 29.444 98.6531 30.836 98.2931 32.3C98.0291 33.428 97.7171 34.196 97.3571 34.604C97.0211 34.988 96.4811 35.18 95.7371 35.18Z" stroke="#EAE0D5" stroke-width="2" mask="url(#path-1-outside-1)"/>
<path d="M115.181 35.18C113.813 35.18 112.696 34.64 111.832 33.56C110.992 32.48 110.573 31.064 110.573 29.312C110.573 27.392 111.017 25.58 111.905 23.876C112.793 22.148 113.969 20.768 115.433 19.736C116.921 18.68 118.492 18.152 120.148 18.152C120.676 18.152 121.024 18.26 121.192 18.476C121.384 18.668 121.54 19.028 121.66 19.556C122.116 19.46 122.621 19.412 123.173 19.412C123.749 19.412 124.193 19.556 124.505 19.844C124.817 20.132 124.973 20.54 124.973 21.068C124.973 21.62 124.853 22.58 124.613 23.948C124.349 25.412 124.145 26.816 124.001 28.16C123.857 29.48 123.785 30.968 123.785 32.624C123.785 33.536 123.593 34.196 123.209 34.604C122.849 34.988 122.249 35.18 121.409 35.18C120.593 35.18 119.981 34.988 119.573 34.604C119.189 34.196 118.996 33.548 118.996 32.66L119.033 32.084C118.289 34.148 117.005 35.18 115.181 35.18ZM116.585 31.544C117.257 31.544 117.869 31.076 118.421 30.14C118.973 29.204 119.465 27.536 119.896 25.136L120.58 21.5C119.596 21.524 118.684 21.908 117.844 22.652C117.004 23.372 116.332 24.332 115.828 25.532C115.324 26.732 115.073 28.004 115.073 29.348C115.073 30.068 115.204 30.62 115.468 31.004C115.756 31.364 116.129 31.544 116.585 31.544Z" stroke="#EAE0D5" stroke-width="2" mask="url(#path-1-outside-1)"/>
<path d="M147.1 35.288C143.908 35.288 141.352 34.688 139.432 33.488C137.512 32.264 136.552 30.404 136.552 27.908C136.552 26.588 136.78 25.58 137.236 24.884C137.692 24.188 138.364 23.84 139.252 23.84C139.9 23.84 140.428 24.008 140.836 24.344C141.244 24.68 141.448 25.112 141.448 25.64C141.448 26.12 141.412 26.54 141.34 26.9C141.34 26.996 141.316 27.164 141.268 27.404C141.244 27.644 141.232 27.896 141.232 28.16C141.232 29.24 141.772 30.044 142.852 30.572C143.956 31.1 145.492 31.364 147.46 31.364C149.5 31.364 151.096 31.004 152.248 30.284C153.4 29.54 153.976 28.508 153.976 27.188C153.976 26.372 153.712 25.676 153.184 25.1C152.656 24.5 151.996 24.008 151.204 23.624C150.412 23.216 149.296 22.724 147.856 22.148C146.008 21.428 144.496 20.744 143.32 20.096C142.168 19.448 141.172 18.572 140.332 17.468C139.516 16.34 139.108 14.948 139.108 13.292C139.108 11.564 139.564 10.028 140.476 8.68398C141.412 7.33997 142.744 6.29597 144.472 5.55198C146.224 4.80797 148.276 4.43597 150.628 4.43597C152.38 4.43597 153.988 4.69997 155.452 5.22797C156.916 5.73197 158.08 6.51197 158.944 7.56797C159.832 8.62397 160.276 9.91997 160.276 11.456C160.276 12.968 160.048 14.108 159.592 14.876C159.136 15.644 158.464 16.028 157.576 16.028C156.952 16.028 156.424 15.836 155.992 15.452C155.584 15.068 155.38 14.612 155.38 14.084C155.38 13.628 155.416 13.208 155.488 12.824C155.56 12.104 155.596 11.648 155.596 11.456C155.596 10.448 155.104 9.67997 154.12 9.15197C153.136 8.62397 151.912 8.35998 150.448 8.35998C148.384 8.35998 146.8 8.74397 145.696 9.51197C144.616 10.256 144.076 11.312 144.076 12.68C144.076 13.592 144.352 14.372 144.904 15.02C145.48 15.668 146.188 16.208 147.028 16.64C147.868 17.072 149.044 17.588 150.556 18.188C152.38 18.932 153.844 19.604 154.948 20.204C156.052 20.804 156.988 21.62 157.756 22.652C158.548 23.684 158.944 24.956 158.944 26.468C158.944 29.3 157.864 31.484 155.704 33.02C153.568 34.532 150.7 35.288 147.1 35.288Z" stroke="#EAE0D5" stroke-width="2" mask="url(#path-1-outside-1)"/>
<path d="M177.721 26.972C178.033 26.972 178.273 27.116 178.441 27.404C178.633 27.692 178.73 28.088 178.73 28.592C178.73 29.552 178.502 30.296 178.046 30.824C177.014 32.096 175.885 33.14 174.661 33.956C173.437 34.772 172.033 35.18 170.449 35.18C165.553 35.18 163.105 31.736 163.105 24.848C163.105 23.792 163.142 22.724 163.214 21.644H161.809C161.089 21.644 160.597 21.512 160.333 21.248C160.093 20.984 159.973 20.564 159.973 19.988C159.973 18.644 160.514 17.972 161.594 17.972H163.646C164.054 15.332 164.678 12.92 165.518 10.736C166.358 8.55197 167.366 6.81197 168.542 5.51597C169.742 4.21997 171.025 3.57197 172.393 3.57197C173.401 3.57197 174.194 4.01597 174.77 4.90397C175.346 5.79197 175.633 6.90797 175.633 8.25197C175.633 11.972 174.074 15.212 170.954 17.972H174.986C175.37 17.972 175.646 18.056 175.814 18.224C175.982 18.392 176.066 18.704 176.066 19.16C176.066 20.816 174.709 21.644 171.997 21.644H167.605C167.557 22.844 167.533 23.78 167.533 24.452C167.533 26.948 167.822 28.7 168.398 29.708C168.998 30.716 169.934 31.22 171.206 31.22C172.238 31.22 173.149 30.908 173.941 30.284C174.733 29.66 175.669 28.724 176.749 27.476C177.037 27.14 177.361 26.972 177.721 26.972ZM171.421 7.02798C171.061 7.02798 170.653 7.48398 170.197 8.39598C169.765 9.28398 169.346 10.532 168.938 12.14C168.554 13.724 168.23 15.488 167.965 17.432C169.381 16.208 170.437 14.84 171.133 13.328C171.853 11.792 172.214 10.4 172.214 9.15197C172.214 7.73597 171.949 7.02798 171.421 7.02798Z" stroke="#EAE0D5" stroke-width="2" mask="url(#path-1-outside-1)"/>
<path d="M180.226 35.18C178.738 35.18 177.55 34.64 176.662 33.56C175.774 32.48 175.33 31.064 175.33 29.312C175.33 27.392 175.774 25.58 176.662 23.876C177.55 22.148 178.726 20.768 180.19 19.736C181.678 18.68 183.25 18.152 184.906 18.152C185.434 18.152 185.782 18.26 185.95 18.476C186.142 18.668 186.298 19.028 186.418 19.556C186.922 19.46 187.45 19.412 188.002 19.412C189.178 19.412 189.766 19.832 189.766 20.672C189.766 21.176 189.586 22.376 189.226 24.272C188.674 27.032 188.398 28.952 188.398 30.032C188.398 30.392 188.482 30.68 188.65 30.896C188.842 31.112 189.082 31.22 189.37 31.22C189.826 31.22 190.378 30.932 191.026 30.356C191.674 29.756 192.55 28.796 193.654 27.476C193.942 27.14 194.266 26.972 194.626 26.972C194.938 26.972 195.178 27.116 195.346 27.404C195.538 27.692 195.634 28.088 195.634 28.592C195.634 29.552 195.406 30.296 194.95 30.824C193.966 32.048 192.922 33.08 191.818 33.92C190.714 34.76 189.646 35.18 188.614 35.18C187.822 35.18 187.09 34.916 186.418 34.388C185.77 33.836 185.278 33.092 184.942 32.156C183.694 34.172 182.122 35.18 180.226 35.18ZM181.522 31.544C182.05 31.544 182.554 31.232 183.034 30.608C183.514 29.984 183.862 29.156 184.078 28.124L185.41 21.5C184.402 21.524 183.466 21.908 182.602 22.652C181.762 23.372 181.09 24.332 180.586 25.532C180.082 26.732 179.83 28.004 179.83 29.348C179.83 30.092 179.974 30.644 180.262 31.004C180.574 31.364 180.994 31.544 181.522 31.544Z" stroke="#EAE0D5" stroke-width="2" mask="url(#path-1-outside-1)"/>
<path d="M199.584 35.18C197.232 35.18 195.396 34.52 194.076 33.2C192.78 31.856 192.132 30.092 192.132 27.908C192.132 25.964 192.516 24.26 193.284 22.796C194.052 21.332 195.048 20.204 196.272 19.412C197.496 18.62 198.78 18.224 200.124 18.224C201.444 18.224 202.464 18.62 203.184 19.412C203.928 20.18 204.3 21.176 204.3 22.4C204.3 23.408 204.072 24.26 203.616 24.956C203.184 25.652 202.608 26 201.888 26C201.432 26 201.06 25.892 200.772 25.676C200.508 25.46 200.376 25.16 200.376 24.776C200.376 24.608 200.4 24.416 200.448 24.2C200.496 23.984 200.532 23.828 200.556 23.732C200.676 23.372 200.736 23.036 200.736 22.724C200.736 22.412 200.652 22.172 200.484 22.004C200.34 21.836 200.124 21.752 199.836 21.752C199.284 21.752 198.768 22.004 198.288 22.508C197.808 22.988 197.424 23.648 197.136 24.488C196.848 25.328 196.704 26.252 196.704 27.26C196.704 30.044 197.916 31.436 200.34 31.436C201.324 31.436 202.38 31.112 203.508 30.464C204.66 29.792 205.788 28.796 206.892 27.476C207.18 27.14 207.504 26.972 207.864 26.972C208.176 26.972 208.416 27.116 208.584 27.404C208.776 27.692 208.872 28.088 208.872 28.592C208.872 29.504 208.644 30.248 208.188 30.824C207.06 32.216 205.704 33.296 204.12 34.064C202.56 34.808 201.048 35.18 199.584 35.18Z" stroke="#EAE0D5" stroke-width="2" mask="url(#path-1-outside-1)"/>
<path d="M225.942 26.972C226.254 26.972 226.494 27.116 226.662 27.404C226.854 27.692 226.95 28.088 226.95 28.592C226.95 29.552 226.722 30.296 226.266 30.824C225.162 32.096 224.022 33.14 222.846 33.956C221.694 34.772 220.374 35.18 218.886 35.18C217.662 35.18 216.738 34.832 216.114 34.136C215.49 33.416 215.178 32.384 215.178 31.04C215.178 30.368 215.346 29.168 215.682 27.44C215.994 25.928 216.15 24.884 216.15 24.308C216.15 23.924 216.018 23.732 215.754 23.732C215.442 23.732 214.998 24.14 214.422 24.956C213.846 25.748 213.27 26.804 212.694 28.124C212.118 29.444 211.65 30.836 211.29 32.3C210.834 34.22 209.706 35.18 207.906 35.18C207.186 35.18 206.706 34.928 206.466 34.424C206.25 33.896 206.142 32.96 206.142 31.616C206.142 30.848 206.154 30.236 206.178 29.78L206.214 26.9C206.214 23.204 206.586 19.352 207.33 15.344C208.098 11.336 209.214 7.97597 210.678 5.26397C212.166 2.52797 213.942 1.15997 216.006 1.15997C217.11 1.15997 217.998 1.63997 218.67 2.59997C219.366 3.53597 219.714 4.75997 219.714 6.27197C219.714 8.69597 219.006 11.216 217.59 13.832C216.174 16.424 213.87 19.46 210.678 22.94C210.606 24.188 210.57 25.472 210.57 26.792C211.362 24.752 212.238 23.096 213.198 21.824C214.182 20.528 215.142 19.604 216.078 19.052C217.038 18.5 217.914 18.224 218.706 18.224C220.266 18.224 221.046 19.004 221.046 20.564C221.046 21.5 220.782 23.192 220.254 25.64C219.798 27.728 219.57 29.108 219.57 29.78C219.57 30.74 219.918 31.22 220.614 31.22C221.094 31.22 221.658 30.932 222.306 30.356C222.978 29.756 223.866 28.796 224.97 27.476C225.258 27.14 225.582 26.972 225.942 26.972ZM215.25 4.72397C214.818 4.72397 214.338 5.34797 213.81 6.59597C213.282 7.81997 212.766 9.48797 212.262 11.6C211.782 13.688 211.386 15.968 211.074 18.44C212.562 16.688 213.786 14.78 214.746 12.716C215.73 10.652 216.222 8.77997 216.222 7.09997C216.222 6.33197 216.138 5.74397 215.97 5.33597C215.802 4.92797 215.562 4.72397 215.25 4.72397Z" stroke="#EAE0D5" stroke-width="2" mask="url(#path-1-outside-1)"/>
<path d="M227.705 35.18C226.625 35.18 225.737 34.688 225.041 33.704C224.369 32.696 224.033 31.448 224.033 29.96C224.033 28.16 224.153 26.516 224.393 25.028C224.633 23.516 225.029 21.92 225.581 20.24C225.821 19.52 226.157 19.004 226.589 18.692C227.021 18.38 227.705 18.224 228.641 18.224C229.169 18.224 229.529 18.308 229.721 18.476C229.937 18.644 230.045 18.896 230.045 19.232C230.045 19.424 229.913 20.072 229.649 21.176C229.409 22.064 229.217 22.868 229.073 23.588C228.593 26.108 228.353 27.788 228.353 28.628C228.353 29.132 228.413 29.492 228.533 29.708C228.653 29.9 228.845 29.996 229.109 29.996C229.469 29.996 229.913 29.636 230.441 28.916C230.993 28.196 231.569 27.104 232.169 25.64C232.793 24.176 233.393 22.376 233.969 20.24C234.161 19.52 234.449 19.004 234.833 18.692C235.241 18.38 235.841 18.224 236.633 18.224C237.185 18.224 237.569 18.296 237.785 18.44C238.001 18.56 238.109 18.8 238.109 19.16C238.109 19.76 237.809 21.404 237.209 24.092C236.537 27.164 236.201 29.06 236.201 29.78C236.201 30.236 236.297 30.596 236.489 30.86C236.681 31.1 236.933 31.22 237.245 31.22C237.725 31.22 238.289 30.932 238.937 30.356C239.609 29.756 240.497 28.796 241.601 27.476C241.889 27.14 242.213 26.972 242.573 26.972C242.885 26.972 243.125 27.116 243.293 27.404C243.485 27.692 243.581 28.088 243.581 28.592C243.581 29.552 243.353 30.296 242.897 30.824C241.865 32.096 240.749 33.14 239.549 33.956C238.373 34.772 237.029 35.18 235.517 35.18C234.365 35.18 233.513 34.736 232.961 33.848C232.433 32.96 232.169 31.712 232.169 30.104C231.761 31.736 231.149 32.996 230.333 33.884C229.517 34.748 228.641 35.18 227.705 35.18Z" stroke="#EAE0D5" stroke-width="2" mask="url(#path-1-outside-1)"/>
<path d="M243.218 35.18C242.306 35.18 241.658 34.7 241.274 33.74C240.914 32.78 240.734 31.244 240.734 29.132C240.734 26.012 241.178 23.048 242.066 20.24C242.282 19.544 242.63 19.04 243.11 18.728C243.614 18.392 244.31 18.224 245.198 18.224C245.678 18.224 246.014 18.284 246.206 18.404C246.398 18.524 246.494 18.752 246.494 19.088C246.494 19.472 246.314 20.336 245.954 21.68C245.714 22.64 245.522 23.48 245.378 24.2C245.234 24.92 245.114 25.808 245.018 26.864C245.81 24.8 246.698 23.12 247.682 21.824C248.666 20.528 249.626 19.604 250.562 19.052C251.522 18.5 252.398 18.224 253.19 18.224C254.75 18.224 255.53 19.004 255.53 20.564C255.53 20.876 255.422 21.632 255.206 22.832C255.014 23.792 254.918 24.392 254.918 24.632C254.918 25.472 255.218 25.892 255.818 25.892C256.49 25.892 257.354 25.364 258.41 24.308C258.722 23.996 259.046 23.84 259.382 23.84C259.694 23.84 259.934 23.984 260.102 24.272C260.294 24.536 260.39 24.896 260.39 25.352C260.39 26.24 260.15 26.936 259.67 27.44C258.998 28.136 258.206 28.736 257.294 29.24C256.406 29.72 255.458 29.96 254.45 29.96C253.178 29.96 252.206 29.636 251.534 28.988C250.886 28.34 250.562 27.464 250.562 26.36C250.562 26 250.598 25.64 250.67 25.28C250.718 24.8 250.742 24.476 250.742 24.308C250.742 23.924 250.61 23.732 250.346 23.732C249.986 23.732 249.506 24.14 248.906 24.956C248.33 25.748 247.754 26.804 247.178 28.124C246.602 29.444 246.134 30.836 245.774 32.3C245.51 33.428 245.198 34.196 244.838 34.604C244.502 34.988 243.962 35.18 243.218 35.18Z" stroke="#EAE0D5" stroke-width="2" mask="url(#path-1-outside-1)"/>
<path d="M261.184 35.18C259.816 35.18 258.7 34.64 257.836 33.56C256.996 32.48 256.576 31.064 256.576 29.312C256.576 27.392 257.02 25.58 257.908 23.876C258.796 22.148 259.972 20.768 261.436 19.736C262.924 18.68 264.496 18.152 266.152 18.152C266.68 18.152 267.028 18.26 267.196 18.476C267.388 18.668 267.544 19.028 267.664 19.556C268.12 19.46 268.624 19.412 269.176 19.412C269.752 19.412 270.196 19.556 270.508 19.844C270.82 20.132 270.976 20.54 270.976 21.068C270.976 21.62 270.856 22.58 270.616 23.948C270.352 25.412 270.148 26.816 270.004 28.16C269.86 29.48 269.788 30.968 269.788 32.624C269.788 33.536 269.596 34.196 269.212 34.604C268.852 34.988 268.252 35.18 267.412 35.18C266.596 35.18 265.984 34.988 265.576 34.604C265.192 34.196 265 33.548 265 32.66L265.036 32.084C264.292 34.148 263.008 35.18 261.184 35.18ZM262.588 31.544C263.26 31.544 263.872 31.076 264.424 30.14C264.976 29.204 265.468 27.536 265.9 25.136L266.584 21.5C265.6 21.524 264.688 21.908 263.848 22.652C263.008 23.372 262.336 24.332 261.832 25.532C261.328 26.732 261.076 28.004 261.076 29.348C261.076 30.068 261.208 30.62 261.472 31.004C261.76 31.364 262.132 31.544 262.588 31.544Z" stroke="#EAE0D5" stroke-width="2" mask="url(#path-1-outside-1)"/>
</svg>
