<svg id="svg" width="362" height="49" viewBox="0 0 362 49" fill="none" xmlns="http://www.w3.org/2000/svg">
<mask id="path-1-outside-1" maskUnits="userSpaceOnUse" x="0.0319977" y="0.880005" width="362" height="48" fill="black">
<rect fill="white" x="0.0319977" y="0.880005" width="362" height="48"/>
<path d="M40.152 36.296C40.568 36.296 40.888 36.488 41.112 36.872C41.368 37.256 41.496 37.784 41.496 38.456C41.496 39.704 41.192 40.696 40.584 41.432C38.792 43.576 37.048 45.08 35.352 45.944C33.688 46.808 31.672 47.24 29.304 47.24C27.64 47.24 26.104 47.032 24.696 46.616C23.288 46.2 21.576 45.576 19.56 44.744C17.736 43.944 15.976 43.288 14.28 42.776C12.648 45.752 10.2 47.24 6.936 47.24C5.144 47.24 3.72 46.84 2.664 46.04C1.576 45.208 1.032 44.152 1.032 42.872C1.032 41.304 1.784 40.008 3.288 38.984C4.792 37.928 6.792 37.4 9.288 37.4H9.912L10.776 23.432C10.968 20.232 11.544 17.592 12.504 15.512C13.464 13.432 14.792 11.656 16.488 10.184C17.96 8.90401 19.64 7.94401 21.528 7.30401C23.416 6.63201 25.416 6.29601 27.528 6.29601C30.984 6.29601 33.64 7.19201 35.496 8.984C37.352 10.776 38.28 13.112 38.28 15.992C38.28 17.944 37.928 19.528 37.224 20.744C36.52 21.928 35.544 22.52 34.296 22.52C33.4 22.52 32.696 22.312 32.184 21.896C31.672 21.448 31.416 20.824 31.416 20.024C31.416 19.736 31.48 19.208 31.608 18.44C31.8 17.544 31.896 16.744 31.896 16.04C31.896 14.696 31.496 13.64 30.696 12.872C29.928 12.072 28.744 11.672 27.144 11.672C24.328 11.672 22.152 12.6 20.616 14.456C19.08 16.28 18.104 19.16 17.688 23.096L16.584 33.992C16.424 35.528 16.216 36.856 15.96 37.976C18.008 38.328 20.568 38.888 23.64 39.656C25.432 40.104 26.808 40.424 27.768 40.616C28.728 40.808 29.576 40.904 30.312 40.904C32.168 40.904 33.752 40.6 35.064 39.992C36.408 39.352 37.672 38.344 38.856 36.968C39.24 36.52 39.672 36.296 40.152 36.296Z"/>
<path d="M43.8889 21.464C42.5449 21.464 41.5369 21.16 40.8649 20.552C40.1929 19.912 39.8569 19.032 39.8569 17.912C39.8569 16.792 40.2889 15.864 41.1529 15.128C42.0489 14.36 43.1529 13.976 44.4649 13.976C45.6489 13.976 46.6089 14.264 47.3449 14.84C48.0809 15.416 48.4489 16.232 48.4489 17.288C48.4489 18.568 48.0329 19.592 47.2009 20.36C46.3689 21.096 45.2649 21.464 43.8889 21.464ZM43.5049 47.24C41.4249 47.24 39.9049 46.504 38.9449 45.032C38.0169 43.56 37.5529 41.608 37.5529 39.176C37.5529 37.736 37.7289 35.896 38.0809 33.656C38.4649 31.384 38.9449 29.272 39.5209 27.32C39.8089 26.296 40.1929 25.592 40.6729 25.208C41.1529 24.824 41.9209 24.632 42.9769 24.632C44.6089 24.632 45.4249 25.176 45.4249 26.264C45.4249 27.064 45.1209 28.92 44.5129 31.832C43.7449 35.352 43.3609 37.736 43.3609 38.984C43.3609 39.944 43.4889 40.68 43.7449 41.192C44.0009 41.704 44.4329 41.96 45.0409 41.96C45.6169 41.96 46.3369 41.56 47.2009 40.76C48.0649 39.96 49.2169 38.696 50.6569 36.968C51.0409 36.52 51.4729 36.296 51.9529 36.296C52.3689 36.296 52.6889 36.488 52.9129 36.872C53.1689 37.256 53.2969 37.784 53.2969 38.456C53.2969 39.736 52.9929 40.728 52.3849 41.432C49.2169 45.304 46.2569 47.24 43.5049 47.24Z"/>
<path d="M67.6054 36.296C68.0214 36.296 68.3414 36.488 68.5654 36.872C68.8214 37.256 68.9494 37.784 68.9494 38.456C68.9494 39.736 68.6454 40.728 68.0374 41.432C66.6614 43.128 65.1574 44.52 63.5254 45.608C61.9254 46.696 60.1014 47.24 58.0534 47.24C55.2374 47.24 53.1414 45.96 51.7654 43.4C50.4214 40.84 49.7494 37.528 49.7494 33.464C49.7494 29.56 50.2454 25.112 51.2374 20.12C52.2614 15.128 53.7494 10.84 55.7014 7.256C57.6854 3.672 60.0374 1.88 62.7574 1.88C64.2934 1.88 65.4934 2.6 66.3574 4.04C67.2534 5.44801 67.7014 7.48001 67.7014 10.136C67.7014 13.944 66.6454 18.36 64.5334 23.384C62.4214 28.408 59.5574 33.384 55.9414 38.312C56.1654 39.624 56.5334 40.568 57.0454 41.144C57.5574 41.688 58.2294 41.96 59.0614 41.96C60.3734 41.96 61.5254 41.592 62.5174 40.856C63.5094 40.088 64.7734 38.792 66.3094 36.968C66.6934 36.52 67.1254 36.296 67.6054 36.296ZM61.7014 6.63201C60.9654 6.63201 60.1334 7.96001 59.2054 10.616C58.2774 13.272 57.4614 16.568 56.7574 20.504C56.0534 24.44 55.6694 28.216 55.6054 31.832C57.8774 28.088 59.6854 24.344 61.0294 20.6C62.3734 16.824 63.0454 13.384 63.0454 10.28C63.0454 7.84801 62.5974 6.63201 61.7014 6.63201Z"/>
<path d="M71.3576 21.464C70.0136 21.464 69.0056 21.16 68.3336 20.552C67.6616 19.912 67.3256 19.032 67.3256 17.912C67.3256 16.792 67.7576 15.864 68.6216 15.128C69.5176 14.36 70.6216 13.976 71.9336 13.976C73.1176 13.976 74.0776 14.264 74.8136 14.84C75.5496 15.416 75.9176 16.232 75.9176 17.288C75.9176 18.568 75.5016 19.592 74.6696 20.36C73.8376 21.096 72.7336 21.464 71.3576 21.464ZM70.9736 47.24C68.8936 47.24 67.3736 46.504 66.4136 45.032C65.4856 43.56 65.0216 41.608 65.0216 39.176C65.0216 37.736 65.1976 35.896 65.5496 33.656C65.9336 31.384 66.4136 29.272 66.9896 27.32C67.2776 26.296 67.6616 25.592 68.1416 25.208C68.6216 24.824 69.3896 24.632 70.4456 24.632C72.0776 24.632 72.8936 25.176 72.8936 26.264C72.8936 27.064 72.5896 28.92 71.9816 31.832C71.2136 35.352 70.8296 37.736 70.8296 38.984C70.8296 39.944 70.9576 40.68 71.2136 41.192C71.4696 41.704 71.9016 41.96 72.5096 41.96C73.0856 41.96 73.8056 41.56 74.6696 40.76C75.5336 39.96 76.6856 38.696 78.1256 36.968C78.5096 36.52 78.9416 36.296 79.4216 36.296C79.8376 36.296 80.1576 36.488 80.3816 36.872C80.6376 37.256 80.7656 37.784 80.7656 38.456C80.7656 39.736 80.4616 40.728 79.8536 41.432C76.6856 45.304 73.7256 47.24 70.9736 47.24Z"/>
<path d="M82.7861 47.24C80.8021 47.24 79.2181 46.52 78.0341 45.08C76.8501 43.64 76.2581 41.752 76.2581 39.416C76.2581 36.856 76.8501 34.44 78.0341 32.168C79.2181 29.864 80.7861 28.024 82.7381 26.648C84.7221 25.24 86.8181 24.536 89.0261 24.536C89.7301 24.536 90.1941 24.68 90.4181 24.968C90.6741 25.224 90.8821 25.704 91.0421 26.408C91.7141 26.28 92.4181 26.216 93.1541 26.216C94.7221 26.216 95.5061 26.776 95.5061 27.896C95.5061 28.568 95.2661 30.168 94.7861 32.696C94.0501 36.376 93.6821 38.936 93.6821 40.376C93.6821 40.856 93.7941 41.24 94.0181 41.528C94.2741 41.816 94.5941 41.96 94.9781 41.96C95.5861 41.96 96.3221 41.576 97.1861 40.808C98.0501 40.008 99.2181 38.728 100.69 36.968C101.074 36.52 101.506 36.296 101.986 36.296C102.402 36.296 102.722 36.488 102.946 36.872C103.202 37.256 103.33 37.784 103.33 38.456C103.33 39.736 103.026 40.728 102.418 41.432C101.106 43.064 99.7141 44.44 98.2421 45.56C96.7701 46.68 95.3461 47.24 93.9701 47.24C92.9141 47.24 91.9381 46.888 91.0421 46.184C90.1781 45.448 89.5221 44.456 89.0741 43.208C87.4101 45.896 85.3141 47.24 82.7861 47.24ZM84.5141 42.392C85.2181 42.392 85.8901 41.976 86.5301 41.144C87.1701 40.312 87.6341 39.208 87.9221 37.832L89.6981 29C88.3541 29.032 87.1061 29.544 85.9541 30.536C84.8341 31.496 83.9381 32.776 83.2661 34.376C82.5941 35.976 82.2581 37.672 82.2581 39.464C82.2581 40.456 82.4501 41.192 82.8341 41.672C83.2501 42.152 83.8101 42.392 84.5141 42.392Z"/>
<path d="M102.837 47.24C101.621 47.24 100.757 46.6 100.245 45.32C99.765 44.04 99.525 41.992 99.525 39.176C99.525 35.016 100.117 31.064 101.301 27.32C101.589 26.392 102.053 25.72 102.693 25.304C103.365 24.856 104.293 24.632 105.477 24.632C106.117 24.632 106.565 24.712 106.821 24.872C107.077 25.032 107.205 25.336 107.205 25.784C107.205 26.296 106.965 27.448 106.485 29.24C106.165 30.52 105.909 31.64 105.717 32.6C105.525 33.56 105.365 34.744 105.237 36.152C106.293 33.4 107.477 31.16 108.789 29.432C110.101 27.704 111.381 26.472 112.629 25.736C113.909 25 115.077 24.632 116.133 24.632C118.213 24.632 119.253 25.672 119.253 27.752C119.253 29 118.901 31.256 118.197 34.52C117.589 37.304 117.285 39.144 117.285 40.04C117.285 41.32 117.749 41.96 118.677 41.96C119.317 41.96 120.069 41.576 120.933 40.808C121.829 40.008 123.013 38.728 124.485 36.968C124.869 36.52 125.301 36.296 125.781 36.296C126.197 36.296 126.517 36.488 126.741 36.872C126.997 37.256 127.125 37.784 127.125 38.456C127.125 39.736 126.821 40.728 126.213 41.432C124.837 43.128 123.349 44.52 121.749 45.608C120.181 46.696 118.389 47.24 116.373 47.24C114.741 47.24 113.509 46.776 112.677 45.848C111.845 44.888 111.429 43.512 111.429 41.72C111.429 40.824 111.653 39.224 112.101 36.92C112.517 34.904 112.725 33.512 112.725 32.744C112.725 32.232 112.549 31.976 112.197 31.976C111.781 31.976 111.189 32.52 110.421 33.608C109.685 34.664 108.917 36.072 108.117 37.832C107.349 39.592 106.725 41.448 106.245 43.4C105.893 44.904 105.477 45.928 104.997 46.472C104.549 46.984 103.829 47.24 102.837 47.24Z"/>
<path d="M126.649 47.24C125.433 47.24 124.57 46.6 124.058 45.32C123.578 44.04 123.338 41.992 123.338 39.176C123.338 35.016 123.93 31.064 125.114 27.32C125.402 26.392 125.866 25.72 126.506 25.304C127.178 24.856 128.105 24.632 129.289 24.632C129.929 24.632 130.377 24.712 130.633 24.872C130.889 25.032 131.018 25.336 131.018 25.784C131.018 26.296 130.778 27.448 130.298 29.24C129.978 30.52 129.721 31.64 129.529 32.6C129.337 33.56 129.177 34.744 129.049 36.152C130.105 33.4 131.29 31.16 132.602 29.432C133.914 27.704 135.193 26.472 136.441 25.736C137.721 25 138.889 24.632 139.945 24.632C142.025 24.632 143.066 25.672 143.066 27.752C143.066 29 142.714 31.256 142.01 34.52C141.402 37.304 141.098 39.144 141.098 40.04C141.098 41.32 141.562 41.96 142.49 41.96C143.13 41.96 143.881 41.576 144.745 40.808C145.641 40.008 146.826 38.728 148.298 36.968C148.681 36.52 149.114 36.296 149.594 36.296C150.01 36.296 150.329 36.488 150.553 36.872C150.809 37.256 150.938 37.784 150.938 38.456C150.938 39.736 150.633 40.728 150.025 41.432C148.649 43.128 147.161 44.52 145.561 45.608C143.993 46.696 142.202 47.24 140.186 47.24C138.554 47.24 137.322 46.776 136.49 45.848C135.658 44.888 135.242 43.512 135.242 41.72C135.242 40.824 135.465 39.224 135.913 36.92C136.329 34.904 136.538 33.512 136.538 32.744C136.538 32.232 136.362 31.976 136.01 31.976C135.594 31.976 135.002 32.52 134.234 33.608C133.498 34.664 132.73 36.072 131.93 37.832C131.162 39.592 130.537 41.448 130.057 43.4C129.705 44.904 129.29 45.928 128.81 46.472C128.362 46.984 127.641 47.24 126.649 47.24Z"/>
<path d="M152.574 47.24C150.75 47.24 149.262 46.52 148.11 45.08C146.99 43.64 146.43 41.752 146.43 39.416C146.43 36.856 147.022 34.44 148.206 32.168C149.39 29.864 150.958 28.024 152.91 26.648C154.894 25.24 156.99 24.536 159.198 24.536C159.902 24.536 160.366 24.68 160.59 24.968C160.846 25.224 161.054 25.704 161.214 26.408C161.822 26.28 162.494 26.216 163.23 26.216C163.998 26.216 164.59 26.408 165.006 26.792C165.422 27.176 165.63 27.72 165.63 28.424C165.63 29.16 165.47 30.44 165.15 32.264C164.798 34.216 164.526 36.088 164.334 37.88C164.142 39.64 164.046 41.624 164.046 43.832C164.046 45.048 163.79 45.928 163.278 46.472C162.798 46.984 161.998 47.24 160.878 47.24C159.79 47.24 158.974 46.984 158.43 46.472C157.918 45.928 157.662 45.064 157.662 43.88L157.71 43.112C156.718 45.864 155.006 47.24 152.574 47.24ZM154.446 42.392C155.342 42.392 156.158 41.768 156.894 40.52C157.63 39.272 158.286 37.048 158.862 33.848L159.774 29C158.462 29.032 157.246 29.544 156.126 30.536C155.006 31.496 154.11 32.776 153.438 34.376C152.766 35.976 152.43 37.672 152.43 39.464C152.43 40.424 152.606 41.16 152.958 41.672C153.342 42.152 153.838 42.392 154.446 42.392Z"/>
<path d="M195.133 47.384C190.877 47.384 187.47 46.584 184.91 44.984C182.349 43.352 181.07 40.872 181.07 37.544C181.07 35.784 181.374 34.44 181.982 33.512C182.59 32.584 183.485 32.12 184.669 32.12C185.533 32.12 186.237 32.344 186.781 32.792C187.325 33.24 187.598 33.816 187.598 34.52C187.598 35.16 187.55 35.72 187.454 36.2C187.454 36.328 187.421 36.552 187.357 36.872C187.325 37.192 187.309 37.528 187.309 37.88C187.309 39.32 188.029 40.392 189.469 41.096C190.941 41.8 192.989 42.152 195.613 42.152C198.333 42.152 200.461 41.672 201.997 40.712C203.533 39.72 204.301 38.344 204.301 36.584C204.301 35.496 203.949 34.568 203.245 33.8C202.541 33 201.661 32.344 200.605 31.832C199.549 31.288 198.061 30.632 196.141 29.864C193.677 28.904 191.662 27.992 190.094 27.128C188.558 26.264 187.229 25.096 186.109 23.624C185.021 22.12 184.477 20.264 184.477 18.056C184.477 15.752 185.085 13.704 186.301 11.912C187.549 10.12 189.326 8.72801 191.63 7.73601C193.966 6.74401 196.701 6.248 199.837 6.248C202.173 6.248 204.318 6.60001 206.27 7.30401C208.222 7.97601 209.774 9.01601 210.926 10.424C212.11 11.832 212.702 13.56 212.702 15.608C212.702 17.624 212.398 19.144 211.79 20.168C211.182 21.192 210.286 21.704 209.102 21.704C208.27 21.704 207.566 21.448 206.99 20.936C206.446 20.424 206.174 19.816 206.174 19.112C206.174 18.504 206.222 17.944 206.318 17.432C206.414 16.472 206.462 15.864 206.462 15.608C206.462 14.264 205.806 13.24 204.493 12.536C203.182 11.832 201.55 11.48 199.598 11.48C196.846 11.48 194.734 11.992 193.262 13.016C191.822 14.008 191.102 15.416 191.102 17.24C191.102 18.456 191.47 19.496 192.206 20.36C192.974 21.224 193.918 21.944 195.038 22.52C196.158 23.096 197.726 23.784 199.742 24.584C202.174 25.576 204.126 26.472 205.598 27.272C207.07 28.072 208.318 29.16 209.342 30.536C210.398 31.912 210.926 33.608 210.926 35.624C210.926 39.4 209.485 42.312 206.605 44.36C203.757 46.376 199.933 47.384 195.133 47.384Z"/>
<path d="M235.962 36.296C236.378 36.296 236.698 36.488 236.922 36.872C237.178 37.256 237.306 37.784 237.306 38.456C237.306 39.736 237.002 40.728 236.394 41.432C235.018 43.128 233.514 44.52 231.882 45.608C230.25 46.696 228.378 47.24 226.266 47.24C219.738 47.24 216.474 42.648 216.474 33.464C216.474 32.056 216.522 30.632 216.618 29.192H214.746C213.786 29.192 213.13 29.016 212.778 28.664C212.458 28.312 212.298 27.752 212.298 26.984C212.298 25.192 213.018 24.296 214.458 24.296H217.194C217.738 20.776 218.57 17.56 219.69 14.648C220.81 11.736 222.154 9.416 223.722 7.688C225.322 5.96 227.034 5.09601 228.858 5.09601C230.202 5.09601 231.258 5.68801 232.026 6.87201C232.794 8.05601 233.178 9.54401 233.178 11.336C233.178 16.296 231.098 20.616 226.938 24.296H232.314C232.826 24.296 233.194 24.408 233.418 24.632C233.642 24.856 233.754 25.272 233.754 25.88C233.754 28.088 231.946 29.192 228.33 29.192H222.474C222.41 30.792 222.378 32.04 222.378 32.936C222.378 36.264 222.762 38.6 223.53 39.944C224.33 41.288 225.578 41.96 227.274 41.96C228.65 41.96 229.866 41.544 230.922 40.712C231.978 39.88 233.226 38.632 234.666 36.968C235.05 36.52 235.482 36.296 235.962 36.296ZM227.562 9.70401C227.082 9.70401 226.538 10.312 225.93 11.528C225.354 12.712 224.794 14.376 224.25 16.52C223.738 18.632 223.306 20.984 222.954 23.576C224.842 21.944 226.25 20.12 227.178 18.104C228.138 16.056 228.618 14.2 228.618 12.536C228.618 10.648 228.266 9.70401 227.562 9.70401Z"/>
<path d="M239.302 47.24C237.318 47.24 235.734 46.52 234.55 45.08C233.366 43.64 232.774 41.752 232.774 39.416C232.774 36.856 233.366 34.44 234.55 32.168C235.734 29.864 237.302 28.024 239.254 26.648C241.238 25.24 243.334 24.536 245.542 24.536C246.246 24.536 246.71 24.68 246.934 24.968C247.19 25.224 247.398 25.704 247.558 26.408C248.23 26.28 248.934 26.216 249.67 26.216C251.238 26.216 252.022 26.776 252.022 27.896C252.022 28.568 251.782 30.168 251.302 32.696C250.566 36.376 250.198 38.936 250.198 40.376C250.198 40.856 250.31 41.24 250.534 41.528C250.79 41.816 251.11 41.96 251.494 41.96C252.102 41.96 252.838 41.576 253.702 40.808C254.566 40.008 255.734 38.728 257.206 36.968C257.59 36.52 258.022 36.296 258.502 36.296C258.918 36.296 259.238 36.488 259.462 36.872C259.718 37.256 259.846 37.784 259.846 38.456C259.846 39.736 259.542 40.728 258.934 41.432C257.622 43.064 256.23 44.44 254.758 45.56C253.286 46.68 251.862 47.24 250.486 47.24C249.43 47.24 248.454 46.888 247.558 46.184C246.694 45.448 246.038 44.456 245.59 43.208C243.926 45.896 241.83 47.24 239.302 47.24ZM241.03 42.392C241.734 42.392 242.406 41.976 243.046 41.144C243.686 40.312 244.15 39.208 244.438 37.832L246.214 29C244.87 29.032 243.622 29.544 242.47 30.536C241.35 31.496 240.454 32.776 239.782 34.376C239.11 35.976 238.774 37.672 238.774 39.464C238.774 40.456 238.966 41.192 239.35 41.672C239.766 42.152 240.326 42.392 241.03 42.392Z"/>
<path d="M265.113 47.24C261.977 47.24 259.529 46.36 257.769 44.6C256.041 42.808 255.177 40.456 255.177 37.544C255.177 34.952 255.689 32.68 256.713 30.728C257.737 28.776 259.065 27.272 260.697 26.216C262.329 25.16 264.041 24.632 265.833 24.632C267.593 24.632 268.953 25.16 269.913 26.216C270.905 27.24 271.401 28.568 271.401 30.2C271.401 31.544 271.097 32.68 270.489 33.608C269.913 34.536 269.145 35 268.185 35C267.577 35 267.081 34.856 266.697 34.568C266.345 34.28 266.169 33.88 266.169 33.368C266.169 33.144 266.201 32.888 266.265 32.6C266.329 32.312 266.377 32.104 266.409 31.976C266.569 31.496 266.649 31.048 266.649 30.632C266.649 30.216 266.537 29.896 266.313 29.672C266.121 29.448 265.833 29.336 265.449 29.336C264.713 29.336 264.025 29.672 263.385 30.344C262.745 30.984 262.233 31.864 261.849 32.984C261.465 34.104 261.273 35.336 261.273 36.68C261.273 40.392 262.889 42.248 266.121 42.248C267.433 42.248 268.841 41.816 270.345 40.952C271.881 40.056 273.385 38.728 274.857 36.968C275.241 36.52 275.673 36.296 276.153 36.296C276.569 36.296 276.889 36.488 277.113 36.872C277.369 37.256 277.497 37.784 277.497 38.456C277.497 39.672 277.193 40.664 276.585 41.432C275.081 43.288 273.273 44.728 271.161 45.752C269.081 46.744 267.065 47.24 265.113 47.24Z"/>
<path d="M300.256 36.296C300.672 36.296 300.992 36.488 301.216 36.872C301.472 37.256 301.6 37.784 301.6 38.456C301.6 39.736 301.296 40.728 300.688 41.432C299.216 43.128 297.696 44.52 296.128 45.608C294.592 46.696 292.832 47.24 290.848 47.24C289.216 47.24 287.984 46.776 287.152 45.848C286.32 44.888 285.904 43.512 285.904 41.72C285.904 40.824 286.128 39.224 286.576 36.92C286.992 34.904 287.2 33.512 287.2 32.744C287.2 32.232 287.025 31.976 286.673 31.976C286.257 31.976 285.664 32.52 284.896 33.608C284.128 34.664 283.36 36.072 282.592 37.832C281.824 39.592 281.2 41.448 280.72 43.4C280.112 45.96 278.608 47.24 276.208 47.24C275.248 47.24 274.608 46.904 274.288 46.232C274 45.528 273.856 44.28 273.856 42.488C273.856 41.464 273.872 40.648 273.904 40.04L273.952 36.2C273.952 31.272 274.448 26.136 275.44 20.792C276.464 15.448 277.952 10.968 279.904 7.35201C281.888 3.704 284.256 1.88 287.008 1.88C288.48 1.88 289.664 2.52001 290.56 3.80001C291.488 5.04801 291.952 6.68001 291.952 8.69601C291.952 11.928 291.008 15.288 289.12 18.776C287.232 22.232 284.16 26.28 279.904 30.92C279.808 32.584 279.76 34.296 279.76 36.056C280.816 33.336 281.984 31.128 283.264 29.432C284.576 27.704 285.856 26.472 287.104 25.736C288.384 25 289.552 24.632 290.608 24.632C292.688 24.632 293.729 25.672 293.729 27.752C293.729 29 293.377 31.256 292.673 34.52C292.065 37.304 291.76 39.144 291.76 40.04C291.76 41.32 292.224 41.96 293.152 41.96C293.792 41.96 294.544 41.576 295.408 40.808C296.304 40.008 297.488 38.728 298.96 36.968C299.344 36.52 299.776 36.296 300.256 36.296ZM286 6.63201C285.424 6.63201 284.784 7.46401 284.08 9.12801C283.376 10.76 282.688 12.984 282.016 15.8C281.376 18.584 280.848 21.624 280.432 24.92C282.416 22.584 284.048 20.04 285.328 17.288C286.64 14.536 287.296 12.04 287.296 9.80001C287.296 8.77601 287.184 7.99201 286.96 7.44801C286.736 6.90401 286.416 6.63201 286 6.63201Z"/>
<path d="M302.606 47.24C301.166 47.24 299.982 46.584 299.054 45.272C298.158 43.928 297.71 42.264 297.71 40.28C297.71 37.88 297.87 35.688 298.19 33.704C298.51 31.688 299.038 29.56 299.774 27.32C300.094 26.36 300.542 25.672 301.118 25.256C301.694 24.84 302.606 24.632 303.854 24.632C304.558 24.632 305.038 24.744 305.294 24.968C305.582 25.192 305.726 25.528 305.726 25.976C305.726 26.232 305.55 27.096 305.198 28.568C304.878 29.752 304.622 30.824 304.43 31.784C303.79 35.144 303.47 37.384 303.47 38.504C303.47 39.176 303.55 39.656 303.71 39.944C303.87 40.2 304.126 40.328 304.478 40.328C304.958 40.328 305.55 39.848 306.254 38.888C306.99 37.928 307.758 36.472 308.558 34.52C309.39 32.568 310.19 30.168 310.958 27.32C311.214 26.36 311.598 25.672 312.11 25.256C312.654 24.84 313.454 24.632 314.51 24.632C315.246 24.632 315.758 24.728 316.046 24.92C316.334 25.08 316.478 25.4 316.478 25.88C316.478 26.68 316.078 28.872 315.278 32.456C314.382 36.552 313.934 39.08 313.934 40.04C313.934 40.648 314.062 41.128 314.318 41.48C314.574 41.8 314.91 41.96 315.326 41.96C315.966 41.96 316.718 41.576 317.582 40.808C318.478 40.008 319.662 38.728 321.134 36.968C321.518 36.52 321.95 36.296 322.43 36.296C322.846 36.296 323.166 36.488 323.39 36.872C323.646 37.256 323.774 37.784 323.774 38.456C323.774 39.736 323.47 40.728 322.862 41.432C321.486 43.128 319.998 44.52 318.398 45.608C316.83 46.696 315.038 47.24 313.022 47.24C311.486 47.24 310.35 46.648 309.614 45.464C308.91 44.28 308.558 42.616 308.558 40.472C308.014 42.648 307.198 44.328 306.11 45.512C305.022 46.664 303.854 47.24 302.606 47.24Z"/>
<path d="M323.29 47.24C322.074 47.24 321.21 46.6 320.698 45.32C320.218 44.04 319.978 41.992 319.978 39.176C319.978 35.016 320.57 31.064 321.754 27.32C322.042 26.392 322.506 25.72 323.146 25.304C323.818 24.856 324.746 24.632 325.93 24.632C326.57 24.632 327.018 24.712 327.274 24.872C327.53 25.032 327.658 25.336 327.658 25.784C327.658 26.296 327.418 27.448 326.938 29.24C326.618 30.52 326.362 31.64 326.17 32.6C325.978 33.56 325.818 34.744 325.69 36.152C326.746 33.4 327.93 31.16 329.242 29.432C330.554 27.704 331.834 26.472 333.082 25.736C334.362 25 335.53 24.632 336.586 24.632C338.666 24.632 339.706 25.672 339.706 27.752C339.706 28.168 339.562 29.176 339.274 30.776C339.018 32.056 338.89 32.856 338.89 33.176C338.89 34.296 339.29 34.856 340.09 34.856C340.986 34.856 342.138 34.152 343.546 32.744C343.962 32.328 344.394 32.12 344.842 32.12C345.258 32.12 345.578 32.312 345.802 32.696C346.058 33.048 346.186 33.528 346.186 34.136C346.186 35.32 345.866 36.248 345.226 36.92C344.33 37.848 343.274 38.648 342.058 39.32C340.874 39.96 339.61 40.28 338.266 40.28C336.57 40.28 335.274 39.848 334.378 38.984C333.514 38.12 333.082 36.952 333.082 35.48C333.082 35 333.13 34.52 333.226 34.04C333.29 33.4 333.322 32.968 333.322 32.744C333.322 32.232 333.146 31.976 332.794 31.976C332.314 31.976 331.674 32.52 330.874 33.608C330.106 34.664 329.338 36.072 328.57 37.832C327.802 39.592 327.178 41.448 326.698 43.4C326.346 44.904 325.93 45.928 325.45 46.472C325.002 46.984 324.282 47.24 323.29 47.24Z"/>
<path d="M347.246 47.24C345.422 47.24 343.934 46.52 342.782 45.08C341.662 43.64 341.102 41.752 341.102 39.416C341.102 36.856 341.694 34.44 342.878 32.168C344.062 29.864 345.63 28.024 347.582 26.648C349.566 25.24 351.662 24.536 353.87 24.536C354.574 24.536 355.038 24.68 355.262 24.968C355.518 25.224 355.726 25.704 355.886 26.408C356.494 26.28 357.166 26.216 357.902 26.216C358.67 26.216 359.262 26.408 359.678 26.792C360.094 27.176 360.302 27.72 360.302 28.424C360.302 29.16 360.142 30.44 359.822 32.264C359.47 34.216 359.198 36.088 359.006 37.88C358.814 39.64 358.718 41.624 358.718 43.832C358.718 45.048 358.462 45.928 357.95 46.472C357.47 46.984 356.67 47.24 355.55 47.24C354.462 47.24 353.646 46.984 353.102 46.472C352.59 45.928 352.334 45.064 352.334 43.88L352.382 43.112C351.39 45.864 349.678 47.24 347.246 47.24ZM349.118 42.392C350.014 42.392 350.83 41.768 351.566 40.52C352.302 39.272 352.958 37.048 353.534 33.848L354.446 29C353.134 29.032 351.918 29.544 350.798 30.536C349.678 31.496 348.782 32.776 348.11 34.376C347.438 35.976 347.102 37.672 347.102 39.464C347.102 40.424 347.278 41.16 347.63 41.672C348.014 42.152 348.51 42.392 349.118 42.392Z"/>
</mask>
<path d="M40.152 36.296C40.568 36.296 40.888 36.488 41.112 36.872C41.368 37.256 41.496 37.784 41.496 38.456C41.496 39.704 41.192 40.696 40.584 41.432C38.792 43.576 37.048 45.08 35.352 45.944C33.688 46.808 31.672 47.24 29.304 47.24C27.64 47.24 26.104 47.032 24.696 46.616C23.288 46.2 21.576 45.576 19.56 44.744C17.736 43.944 15.976 43.288 14.28 42.776C12.648 45.752 10.2 47.24 6.936 47.24C5.144 47.24 3.72 46.84 2.664 46.04C1.576 45.208 1.032 44.152 1.032 42.872C1.032 41.304 1.784 40.008 3.288 38.984C4.792 37.928 6.792 37.4 9.288 37.4H9.912L10.776 23.432C10.968 20.232 11.544 17.592 12.504 15.512C13.464 13.432 14.792 11.656 16.488 10.184C17.96 8.90401 19.64 7.94401 21.528 7.30401C23.416 6.63201 25.416 6.29601 27.528 6.29601C30.984 6.29601 33.64 7.19201 35.496 8.984C37.352 10.776 38.28 13.112 38.28 15.992C38.28 17.944 37.928 19.528 37.224 20.744C36.52 21.928 35.544 22.52 34.296 22.52C33.4 22.52 32.696 22.312 32.184 21.896C31.672 21.448 31.416 20.824 31.416 20.024C31.416 19.736 31.48 19.208 31.608 18.44C31.8 17.544 31.896 16.744 31.896 16.04C31.896 14.696 31.496 13.64 30.696 12.872C29.928 12.072 28.744 11.672 27.144 11.672C24.328 11.672 22.152 12.6 20.616 14.456C19.08 16.28 18.104 19.16 17.688 23.096L16.584 33.992C16.424 35.528 16.216 36.856 15.96 37.976C18.008 38.328 20.568 38.888 23.64 39.656C25.432 40.104 26.808 40.424 27.768 40.616C28.728 40.808 29.576 40.904 30.312 40.904C32.168 40.904 33.752 40.6 35.064 39.992C36.408 39.352 37.672 38.344 38.856 36.968C39.24 36.52 39.672 36.296 40.152 36.296Z" stroke="#EAE0D5" stroke-width="2" mask="url(#path-1-outside-1)"/>
<path d="M43.8889 21.464C42.5449 21.464 41.5369 21.16 40.8649 20.552C40.1929 19.912 39.8569 19.032 39.8569 17.912C39.8569 16.792 40.2889 15.864 41.1529 15.128C42.0489 14.36 43.1529 13.976 44.4649 13.976C45.6489 13.976 46.6089 14.264 47.3449 14.84C48.0809 15.416 48.4489 16.232 48.4489 17.288C48.4489 18.568 48.0329 19.592 47.2009 20.36C46.3689 21.096 45.2649 21.464 43.8889 21.464ZM43.5049 47.24C41.4249 47.24 39.9049 46.504 38.9449 45.032C38.0169 43.56 37.5529 41.608 37.5529 39.176C37.5529 37.736 37.7289 35.896 38.0809 33.656C38.4649 31.384 38.9449 29.272 39.5209 27.32C39.8089 26.296 40.1929 25.592 40.6729 25.208C41.1529 24.824 41.9209 24.632 42.9769 24.632C44.6089 24.632 45.4249 25.176 45.4249 26.264C45.4249 27.064 45.1209 28.92 44.5129 31.832C43.7449 35.352 43.3609 37.736 43.3609 38.984C43.3609 39.944 43.4889 40.68 43.7449 41.192C44.0009 41.704 44.4329 41.96 45.0409 41.96C45.6169 41.96 46.3369 41.56 47.2009 40.76C48.0649 39.96 49.2169 38.696 50.6569 36.968C51.0409 36.52 51.4729 36.296 51.9529 36.296C52.3689 36.296 52.6889 36.488 52.9129 36.872C53.1689 37.256 53.2969 37.784 53.2969 38.456C53.2969 39.736 52.9929 40.728 52.3849 41.432C49.2169 45.304 46.2569 47.24 43.5049 47.24Z" stroke="#EAE0D5" stroke-width="2" mask="url(#path-1-outside-1)"/>
<path d="M67.6054 36.296C68.0214 36.296 68.3414 36.488 68.5654 36.872C68.8214 37.256 68.9494 37.784 68.9494 38.456C68.9494 39.736 68.6454 40.728 68.0374 41.432C66.6614 43.128 65.1574 44.52 63.5254 45.608C61.9254 46.696 60.1014 47.24 58.0534 47.24C55.2374 47.24 53.1414 45.96 51.7654 43.4C50.4214 40.84 49.7494 37.528 49.7494 33.464C49.7494 29.56 50.2454 25.112 51.2374 20.12C52.2614 15.128 53.7494 10.84 55.7014 7.256C57.6854 3.672 60.0374 1.88 62.7574 1.88C64.2934 1.88 65.4934 2.6 66.3574 4.04C67.2534 5.44801 67.7014 7.48001 67.7014 10.136C67.7014 13.944 66.6454 18.36 64.5334 23.384C62.4214 28.408 59.5574 33.384 55.9414 38.312C56.1654 39.624 56.5334 40.568 57.0454 41.144C57.5574 41.688 58.2294 41.96 59.0614 41.96C60.3734 41.96 61.5254 41.592 62.5174 40.856C63.5094 40.088 64.7734 38.792 66.3094 36.968C66.6934 36.52 67.1254 36.296 67.6054 36.296ZM61.7014 6.63201C60.9654 6.63201 60.1334 7.96001 59.2054 10.616C58.2774 13.272 57.4614 16.568 56.7574 20.504C56.0534 24.44 55.6694 28.216 55.6054 31.832C57.8774 28.088 59.6854 24.344 61.0294 20.6C62.3734 16.824 63.0454 13.384 63.0454 10.28C63.0454 7.84801 62.5974 6.63201 61.7014 6.63201Z" stroke="#EAE0D5" stroke-width="2" mask="url(#path-1-outside-1)"/>
<path d="M71.3576 21.464C70.0136 21.464 69.0056 21.16 68.3336 20.552C67.6616 19.912 67.3256 19.032 67.3256 17.912C67.3256 16.792 67.7576 15.864 68.6216 15.128C69.5176 14.36 70.6216 13.976 71.9336 13.976C73.1176 13.976 74.0776 14.264 74.8136 14.84C75.5496 15.416 75.9176 16.232 75.9176 17.288C75.9176 18.568 75.5016 19.592 74.6696 20.36C73.8376 21.096 72.7336 21.464 71.3576 21.464ZM70.9736 47.24C68.8936 47.24 67.3736 46.504 66.4136 45.032C65.4856 43.56 65.0216 41.608 65.0216 39.176C65.0216 37.736 65.1976 35.896 65.5496 33.656C65.9336 31.384 66.4136 29.272 66.9896 27.32C67.2776 26.296 67.6616 25.592 68.1416 25.208C68.6216 24.824 69.3896 24.632 70.4456 24.632C72.0776 24.632 72.8936 25.176 72.8936 26.264C72.8936 27.064 72.5896 28.92 71.9816 31.832C71.2136 35.352 70.8296 37.736 70.8296 38.984C70.8296 39.944 70.9576 40.68 71.2136 41.192C71.4696 41.704 71.9016 41.96 72.5096 41.96C73.0856 41.96 73.8056 41.56 74.6696 40.76C75.5336 39.96 76.6856 38.696 78.1256 36.968C78.5096 36.52 78.9416 36.296 79.4216 36.296C79.8376 36.296 80.1576 36.488 80.3816 36.872C80.6376 37.256 80.7656 37.784 80.7656 38.456C80.7656 39.736 80.4616 40.728 79.8536 41.432C76.6856 45.304 73.7256 47.24 70.9736 47.24Z" stroke="#EAE0D5" stroke-width="2" mask="url(#path-1-outside-1)"/>
<path d="M82.7861 47.24C80.8021 47.24 79.2181 46.52 78.0341 45.08C76.8501 43.64 76.2581 41.752 76.2581 39.416C76.2581 36.856 76.8501 34.44 78.0341 32.168C79.2181 29.864 80.7861 28.024 82.7381 26.648C84.7221 25.24 86.8181 24.536 89.0261 24.536C89.7301 24.536 90.1941 24.68 90.4181 24.968C90.6741 25.224 90.8821 25.704 91.0421 26.408C91.7141 26.28 92.4181 26.216 93.1541 26.216C94.7221 26.216 95.5061 26.776 95.5061 27.896C95.5061 28.568 95.2661 30.168 94.7861 32.696C94.0501 36.376 93.6821 38.936 93.6821 40.376C93.6821 40.856 93.7941 41.24 94.0181 41.528C94.2741 41.816 94.5941 41.96 94.9781 41.96C95.5861 41.96 96.3221 41.576 97.1861 40.808C98.0501 40.008 99.2181 38.728 100.69 36.968C101.074 36.52 101.506 36.296 101.986 36.296C102.402 36.296 102.722 36.488 102.946 36.872C103.202 37.256 103.33 37.784 103.33 38.456C103.33 39.736 103.026 40.728 102.418 41.432C101.106 43.064 99.7141 44.44 98.2421 45.56C96.7701 46.68 95.3461 47.24 93.9701 47.24C92.9141 47.24 91.9381 46.888 91.0421 46.184C90.1781 45.448 89.5221 44.456 89.0741 43.208C87.4101 45.896 85.3141 47.24 82.7861 47.24ZM84.5141 42.392C85.2181 42.392 85.8901 41.976 86.5301 41.144C87.1701 40.312 87.6341 39.208 87.9221 37.832L89.6981 29C88.3541 29.032 87.1061 29.544 85.9541 30.536C84.8341 31.496 83.9381 32.776 83.2661 34.376C82.5941 35.976 82.2581 37.672 82.2581 39.464C82.2581 40.456 82.4501 41.192 82.8341 41.672C83.2501 42.152 83.8101 42.392 84.5141 42.392Z" stroke="#EAE0D5" stroke-width="2" mask="url(#path-1-outside-1)"/>
<path d="M102.837 47.24C101.621 47.24 100.757 46.6 100.245 45.32C99.765 44.04 99.525 41.992 99.525 39.176C99.525 35.016 100.117 31.064 101.301 27.32C101.589 26.392 102.053 25.72 102.693 25.304C103.365 24.856 104.293 24.632 105.477 24.632C106.117 24.632 106.565 24.712 106.821 24.872C107.077 25.032 107.205 25.336 107.205 25.784C107.205 26.296 106.965 27.448 106.485 29.24C106.165 30.52 105.909 31.64 105.717 32.6C105.525 33.56 105.365 34.744 105.237 36.152C106.293 33.4 107.477 31.16 108.789 29.432C110.101 27.704 111.381 26.472 112.629 25.736C113.909 25 115.077 24.632 116.133 24.632C118.213 24.632 119.253 25.672 119.253 27.752C119.253 29 118.901 31.256 118.197 34.52C117.589 37.304 117.285 39.144 117.285 40.04C117.285 41.32 117.749 41.96 118.677 41.96C119.317 41.96 120.069 41.576 120.933 40.808C121.829 40.008 123.013 38.728 124.485 36.968C124.869 36.52 125.301 36.296 125.781 36.296C126.197 36.296 126.517 36.488 126.741 36.872C126.997 37.256 127.125 37.784 127.125 38.456C127.125 39.736 126.821 40.728 126.213 41.432C124.837 43.128 123.349 44.52 121.749 45.608C120.181 46.696 118.389 47.24 116.373 47.24C114.741 47.24 113.509 46.776 112.677 45.848C111.845 44.888 111.429 43.512 111.429 41.72C111.429 40.824 111.653 39.224 112.101 36.92C112.517 34.904 112.725 33.512 112.725 32.744C112.725 32.232 112.549 31.976 112.197 31.976C111.781 31.976 111.189 32.52 110.421 33.608C109.685 34.664 108.917 36.072 108.117 37.832C107.349 39.592 106.725 41.448 106.245 43.4C105.893 44.904 105.477 45.928 104.997 46.472C104.549 46.984 103.829 47.24 102.837 47.24Z" stroke="#EAE0D5" stroke-width="2" mask="url(#path-1-outside-1)"/>
<path d="M126.649 47.24C125.433 47.24 124.57 46.6 124.058 45.32C123.578 44.04 123.338 41.992 123.338 39.176C123.338 35.016 123.93 31.064 125.114 27.32C125.402 26.392 125.866 25.72 126.506 25.304C127.178 24.856 128.105 24.632 129.289 24.632C129.929 24.632 130.377 24.712 130.633 24.872C130.889 25.032 131.018 25.336 131.018 25.784C131.018 26.296 130.778 27.448 130.298 29.24C129.978 30.52 129.721 31.64 129.529 32.6C129.337 33.56 129.177 34.744 129.049 36.152C130.105 33.4 131.29 31.16 132.602 29.432C133.914 27.704 135.193 26.472 136.441 25.736C137.721 25 138.889 24.632 139.945 24.632C142.025 24.632 143.066 25.672 143.066 27.752C143.066 29 142.714 31.256 142.01 34.52C141.402 37.304 141.098 39.144 141.098 40.04C141.098 41.32 141.562 41.96 142.49 41.96C143.13 41.96 143.881 41.576 144.745 40.808C145.641 40.008 146.826 38.728 148.298 36.968C148.681 36.52 149.114 36.296 149.594 36.296C150.01 36.296 150.329 36.488 150.553 36.872C150.809 37.256 150.938 37.784 150.938 38.456C150.938 39.736 150.633 40.728 150.025 41.432C148.649 43.128 147.161 44.52 145.561 45.608C143.993 46.696 142.202 47.24 140.186 47.24C138.554 47.24 137.322 46.776 136.49 45.848C135.658 44.888 135.242 43.512 135.242 41.72C135.242 40.824 135.465 39.224 135.913 36.92C136.329 34.904 136.538 33.512 136.538 32.744C136.538 32.232 136.362 31.976 136.01 31.976C135.594 31.976 135.002 32.52 134.234 33.608C133.498 34.664 132.73 36.072 131.93 37.832C131.162 39.592 130.537 41.448 130.057 43.4C129.705 44.904 129.29 45.928 128.81 46.472C128.362 46.984 127.641 47.24 126.649 47.24Z" stroke="#EAE0D5" stroke-width="2" mask="url(#path-1-outside-1)"/>
<path d="M152.574 47.24C150.75 47.24 149.262 46.52 148.11 45.08C146.99 43.64 146.43 41.752 146.43 39.416C146.43 36.856 147.022 34.44 148.206 32.168C149.39 29.864 150.958 28.024 152.91 26.648C154.894 25.24 156.99 24.536 159.198 24.536C159.902 24.536 160.366 24.68 160.59 24.968C160.846 25.224 161.054 25.704 161.214 26.408C161.822 26.28 162.494 26.216 163.23 26.216C163.998 26.216 164.59 26.408 165.006 26.792C165.422 27.176 165.63 27.72 165.63 28.424C165.63 29.16 165.47 30.44 165.15 32.264C164.798 34.216 164.526 36.088 164.334 37.88C164.142 39.64 164.046 41.624 164.046 43.832C164.046 45.048 163.79 45.928 163.278 46.472C162.798 46.984 161.998 47.24 160.878 47.24C159.79 47.24 158.974 46.984 158.43 46.472C157.918 45.928 157.662 45.064 157.662 43.88L157.71 43.112C156.718 45.864 155.006 47.24 152.574 47.24ZM154.446 42.392C155.342 42.392 156.158 41.768 156.894 40.52C157.63 39.272 158.286 37.048 158.862 33.848L159.774 29C158.462 29.032 157.246 29.544 156.126 30.536C155.006 31.496 154.11 32.776 153.438 34.376C152.766 35.976 152.43 37.672 152.43 39.464C152.43 40.424 152.606 41.16 152.958 41.672C153.342 42.152 153.838 42.392 154.446 42.392Z" stroke="#EAE0D5" stroke-width="2" mask="url(#path-1-outside-1)"/>
<path d="M195.133 47.384C190.877 47.384 187.47 46.584 184.91 44.984C182.349 43.352 181.07 40.872 181.07 37.544C181.07 35.784 181.374 34.44 181.982 33.512C182.59 32.584 183.485 32.12 184.669 32.12C185.533 32.12 186.237 32.344 186.781 32.792C187.325 33.24 187.598 33.816 187.598 34.52C187.598 35.16 187.55 35.72 187.454 36.2C187.454 36.328 187.421 36.552 187.357 36.872C187.325 37.192 187.309 37.528 187.309 37.88C187.309 39.32 188.029 40.392 189.469 41.096C190.941 41.8 192.989 42.152 195.613 42.152C198.333 42.152 200.461 41.672 201.997 40.712C203.533 39.72 204.301 38.344 204.301 36.584C204.301 35.496 203.949 34.568 203.245 33.8C202.541 33 201.661 32.344 200.605 31.832C199.549 31.288 198.061 30.632 196.141 29.864C193.677 28.904 191.662 27.992 190.094 27.128C188.558 26.264 187.229 25.096 186.109 23.624C185.021 22.12 184.477 20.264 184.477 18.056C184.477 15.752 185.085 13.704 186.301 11.912C187.549 10.12 189.326 8.72801 191.63 7.73601C193.966 6.74401 196.701 6.248 199.837 6.248C202.173 6.248 204.318 6.60001 206.27 7.30401C208.222 7.97601 209.774 9.01601 210.926 10.424C212.11 11.832 212.702 13.56 212.702 15.608C212.702 17.624 212.398 19.144 211.79 20.168C211.182 21.192 210.286 21.704 209.102 21.704C208.27 21.704 207.566 21.448 206.99 20.936C206.446 20.424 206.174 19.816 206.174 19.112C206.174 18.504 206.222 17.944 206.318 17.432C206.414 16.472 206.462 15.864 206.462 15.608C206.462 14.264 205.806 13.24 204.493 12.536C203.182 11.832 201.55 11.48 199.598 11.48C196.846 11.48 194.734 11.992 193.262 13.016C191.822 14.008 191.102 15.416 191.102 17.24C191.102 18.456 191.47 19.496 192.206 20.36C192.974 21.224 193.918 21.944 195.038 22.52C196.158 23.096 197.726 23.784 199.742 24.584C202.174 25.576 204.126 26.472 205.598 27.272C207.07 28.072 208.318 29.16 209.342 30.536C210.398 31.912 210.926 33.608 210.926 35.624C210.926 39.4 209.485 42.312 206.605 44.36C203.757 46.376 199.933 47.384 195.133 47.384Z" stroke="#EAE0D5" stroke-width="2" mask="url(#path-1-outside-1)"/>
<path d="M235.962 36.296C236.378 36.296 236.698 36.488 236.922 36.872C237.178 37.256 237.306 37.784 237.306 38.456C237.306 39.736 237.002 40.728 236.394 41.432C235.018 43.128 233.514 44.52 231.882 45.608C230.25 46.696 228.378 47.24 226.266 47.24C219.738 47.24 216.474 42.648 216.474 33.464C216.474 32.056 216.522 30.632 216.618 29.192H214.746C213.786 29.192 213.13 29.016 212.778 28.664C212.458 28.312 212.298 27.752 212.298 26.984C212.298 25.192 213.018 24.296 214.458 24.296H217.194C217.738 20.776 218.57 17.56 219.69 14.648C220.81 11.736 222.154 9.416 223.722 7.688C225.322 5.96 227.034 5.09601 228.858 5.09601C230.202 5.09601 231.258 5.68801 232.026 6.87201C232.794 8.05601 233.178 9.54401 233.178 11.336C233.178 16.296 231.098 20.616 226.938 24.296H232.314C232.826 24.296 233.194 24.408 233.418 24.632C233.642 24.856 233.754 25.272 233.754 25.88C233.754 28.088 231.946 29.192 228.33 29.192H222.474C222.41 30.792 222.378 32.04 222.378 32.936C222.378 36.264 222.762 38.6 223.53 39.944C224.33 41.288 225.578 41.96 227.274 41.96C228.65 41.96 229.866 41.544 230.922 40.712C231.978 39.88 233.226 38.632 234.666 36.968C235.05 36.52 235.482 36.296 235.962 36.296ZM227.562 9.70401C227.082 9.70401 226.538 10.312 225.93 11.528C225.354 12.712 224.794 14.376 224.25 16.52C223.738 18.632 223.306 20.984 222.954 23.576C224.842 21.944 226.25 20.12 227.178 18.104C228.138 16.056 228.618 14.2 228.618 12.536C228.618 10.648 228.266 9.70401 227.562 9.70401Z" stroke="#EAE0D5" stroke-width="2" mask="url(#path-1-outside-1)"/>
<path d="M239.302 47.24C237.318 47.24 235.734 46.52 234.55 45.08C233.366 43.64 232.774 41.752 232.774 39.416C232.774 36.856 233.366 34.44 234.55 32.168C235.734 29.864 237.302 28.024 239.254 26.648C241.238 25.24 243.334 24.536 245.542 24.536C246.246 24.536 246.71 24.68 246.934 24.968C247.19 25.224 247.398 25.704 247.558 26.408C248.23 26.28 248.934 26.216 249.67 26.216C251.238 26.216 252.022 26.776 252.022 27.896C252.022 28.568 251.782 30.168 251.302 32.696C250.566 36.376 250.198 38.936 250.198 40.376C250.198 40.856 250.31 41.24 250.534 41.528C250.79 41.816 251.11 41.96 251.494 41.96C252.102 41.96 252.838 41.576 253.702 40.808C254.566 40.008 255.734 38.728 257.206 36.968C257.59 36.52 258.022 36.296 258.502 36.296C258.918 36.296 259.238 36.488 259.462 36.872C259.718 37.256 259.846 37.784 259.846 38.456C259.846 39.736 259.542 40.728 258.934 41.432C257.622 43.064 256.23 44.44 254.758 45.56C253.286 46.68 251.862 47.24 250.486 47.24C249.43 47.24 248.454 46.888 247.558 46.184C246.694 45.448 246.038 44.456 245.59 43.208C243.926 45.896 241.83 47.24 239.302 47.24ZM241.03 42.392C241.734 42.392 242.406 41.976 243.046 41.144C243.686 40.312 244.15 39.208 244.438 37.832L246.214 29C244.87 29.032 243.622 29.544 242.47 30.536C241.35 31.496 240.454 32.776 239.782 34.376C239.11 35.976 238.774 37.672 238.774 39.464C238.774 40.456 238.966 41.192 239.35 41.672C239.766 42.152 240.326 42.392 241.03 42.392Z" stroke="#EAE0D5" stroke-width="2" mask="url(#path-1-outside-1)"/>
<path d="M265.113 47.24C261.977 47.24 259.529 46.36 257.769 44.6C256.041 42.808 255.177 40.456 255.177 37.544C255.177 34.952 255.689 32.68 256.713 30.728C257.737 28.776 259.065 27.272 260.697 26.216C262.329 25.16 264.041 24.632 265.833 24.632C267.593 24.632 268.953 25.16 269.913 26.216C270.905 27.24 271.401 28.568 271.401 30.2C271.401 31.544 271.097 32.68 270.489 33.608C269.913 34.536 269.145 35 268.185 35C267.577 35 267.081 34.856 266.697 34.568C266.345 34.28 266.169 33.88 266.169 33.368C266.169 33.144 266.201 32.888 266.265 32.6C266.329 32.312 266.377 32.104 266.409 31.976C266.569 31.496 266.649 31.048 266.649 30.632C266.649 30.216 266.537 29.896 266.313 29.672C266.121 29.448 265.833 29.336 265.449 29.336C264.713 29.336 264.025 29.672 263.385 30.344C262.745 30.984 262.233 31.864 261.849 32.984C261.465 34.104 261.273 35.336 261.273 36.68C261.273 40.392 262.889 42.248 266.121 42.248C267.433 42.248 268.841 41.816 270.345 40.952C271.881 40.056 273.385 38.728 274.857 36.968C275.241 36.52 275.673 36.296 276.153 36.296C276.569 36.296 276.889 36.488 277.113 36.872C277.369 37.256 277.497 37.784 277.497 38.456C277.497 39.672 277.193 40.664 276.585 41.432C275.081 43.288 273.273 44.728 271.161 45.752C269.081 46.744 267.065 47.24 265.113 47.24Z" stroke="#EAE0D5" stroke-width="2" mask="url(#path-1-outside-1)"/>
<path d="M300.256 36.296C300.672 36.296 300.992 36.488 301.216 36.872C301.472 37.256 301.6 37.784 301.6 38.456C301.6 39.736 301.296 40.728 300.688 41.432C299.216 43.128 297.696 44.52 296.128 45.608C294.592 46.696 292.832 47.24 290.848 47.24C289.216 47.24 287.984 46.776 287.152 45.848C286.32 44.888 285.904 43.512 285.904 41.72C285.904 40.824 286.128 39.224 286.576 36.92C286.992 34.904 287.2 33.512 287.2 32.744C287.2 32.232 287.025 31.976 286.673 31.976C286.257 31.976 285.664 32.52 284.896 33.608C284.128 34.664 283.36 36.072 282.592 37.832C281.824 39.592 281.2 41.448 280.72 43.4C280.112 45.96 278.608 47.24 276.208 47.24C275.248 47.24 274.608 46.904 274.288 46.232C274 45.528 273.856 44.28 273.856 42.488C273.856 41.464 273.872 40.648 273.904 40.04L273.952 36.2C273.952 31.272 274.448 26.136 275.44 20.792C276.464 15.448 277.952 10.968 279.904 7.35201C281.888 3.704 284.256 1.88 287.008 1.88C288.48 1.88 289.664 2.52001 290.56 3.80001C291.488 5.04801 291.952 6.68001 291.952 8.69601C291.952 11.928 291.008 15.288 289.12 18.776C287.232 22.232 284.16 26.28 279.904 30.92C279.808 32.584 279.76 34.296 279.76 36.056C280.816 33.336 281.984 31.128 283.264 29.432C284.576 27.704 285.856 26.472 287.104 25.736C288.384 25 289.552 24.632 290.608 24.632C292.688 24.632 293.729 25.672 293.729 27.752C293.729 29 293.377 31.256 292.673 34.52C292.065 37.304 291.76 39.144 291.76 40.04C291.76 41.32 292.224 41.96 293.152 41.96C293.792 41.96 294.544 41.576 295.408 40.808C296.304 40.008 297.488 38.728 298.96 36.968C299.344 36.52 299.776 36.296 300.256 36.296ZM286 6.63201C285.424 6.63201 284.784 7.46401 284.08 9.12801C283.376 10.76 282.688 12.984 282.016 15.8C281.376 18.584 280.848 21.624 280.432 24.92C282.416 22.584 284.048 20.04 285.328 17.288C286.64 14.536 287.296 12.04 287.296 9.80001C287.296 8.77601 287.184 7.99201 286.96 7.44801C286.736 6.90401 286.416 6.63201 286 6.63201Z" stroke="#EAE0D5" stroke-width="2" mask="url(#path-1-outside-1)"/>
<path d="M302.606 47.24C301.166 47.24 299.982 46.584 299.054 45.272C298.158 43.928 297.71 42.264 297.71 40.28C297.71 37.88 297.87 35.688 298.19 33.704C298.51 31.688 299.038 29.56 299.774 27.32C300.094 26.36 300.542 25.672 301.118 25.256C301.694 24.84 302.606 24.632 303.854 24.632C304.558 24.632 305.038 24.744 305.294 24.968C305.582 25.192 305.726 25.528 305.726 25.976C305.726 26.232 305.55 27.096 305.198 28.568C304.878 29.752 304.622 30.824 304.43 31.784C303.79 35.144 303.47 37.384 303.47 38.504C303.47 39.176 303.55 39.656 303.71 39.944C303.87 40.2 304.126 40.328 304.478 40.328C304.958 40.328 305.55 39.848 306.254 38.888C306.99 37.928 307.758 36.472 308.558 34.52C309.39 32.568 310.19 30.168 310.958 27.32C311.214 26.36 311.598 25.672 312.11 25.256C312.654 24.84 313.454 24.632 314.51 24.632C315.246 24.632 315.758 24.728 316.046 24.92C316.334 25.08 316.478 25.4 316.478 25.88C316.478 26.68 316.078 28.872 315.278 32.456C314.382 36.552 313.934 39.08 313.934 40.04C313.934 40.648 314.062 41.128 314.318 41.48C314.574 41.8 314.91 41.96 315.326 41.96C315.966 41.96 316.718 41.576 317.582 40.808C318.478 40.008 319.662 38.728 321.134 36.968C321.518 36.52 321.95 36.296 322.43 36.296C322.846 36.296 323.166 36.488 323.39 36.872C323.646 37.256 323.774 37.784 323.774 38.456C323.774 39.736 323.47 40.728 322.862 41.432C321.486 43.128 319.998 44.52 318.398 45.608C316.83 46.696 315.038 47.24 313.022 47.24C311.486 47.24 310.35 46.648 309.614 45.464C308.91 44.28 308.558 42.616 308.558 40.472C308.014 42.648 307.198 44.328 306.11 45.512C305.022 46.664 303.854 47.24 302.606 47.24Z" stroke="#EAE0D5" stroke-width="2" mask="url(#path-1-outside-1)"/>
<path d="M323.29 47.24C322.074 47.24 321.21 46.6 320.698 45.32C320.218 44.04 319.978 41.992 319.978 39.176C319.978 35.016 320.57 31.064 321.754 27.32C322.042 26.392 322.506 25.72 323.146 25.304C323.818 24.856 324.746 24.632 325.93 24.632C326.57 24.632 327.018 24.712 327.274 24.872C327.53 25.032 327.658 25.336 327.658 25.784C327.658 26.296 327.418 27.448 326.938 29.24C326.618 30.52 326.362 31.64 326.17 32.6C325.978 33.56 325.818 34.744 325.69 36.152C326.746 33.4 327.93 31.16 329.242 29.432C330.554 27.704 331.834 26.472 333.082 25.736C334.362 25 335.53 24.632 336.586 24.632C338.666 24.632 339.706 25.672 339.706 27.752C339.706 28.168 339.562 29.176 339.274 30.776C339.018 32.056 338.89 32.856 338.89 33.176C338.89 34.296 339.29 34.856 340.09 34.856C340.986 34.856 342.138 34.152 343.546 32.744C343.962 32.328 344.394 32.12 344.842 32.12C345.258 32.12 345.578 32.312 345.802 32.696C346.058 33.048 346.186 33.528 346.186 34.136C346.186 35.32 345.866 36.248 345.226 36.92C344.33 37.848 343.274 38.648 342.058 39.32C340.874 39.96 339.61 40.28 338.266 40.28C336.57 40.28 335.274 39.848 334.378 38.984C333.514 38.12 333.082 36.952 333.082 35.48C333.082 35 333.13 34.52 333.226 34.04C333.29 33.4 333.322 32.968 333.322 32.744C333.322 32.232 333.146 31.976 332.794 31.976C332.314 31.976 331.674 32.52 330.874 33.608C330.106 34.664 329.338 36.072 328.57 37.832C327.802 39.592 327.178 41.448 326.698 43.4C326.346 44.904 325.93 45.928 325.45 46.472C325.002 46.984 324.282 47.24 323.29 47.24Z" stroke="#EAE0D5" stroke-width="2" mask="url(#path-1-outside-1)"/>
<path d="M347.246 47.24C345.422 47.24 343.934 46.52 342.782 45.08C341.662 43.64 341.102 41.752 341.102 39.416C341.102 36.856 341.694 34.44 342.878 32.168C344.062 29.864 345.63 28.024 347.582 26.648C349.566 25.24 351.662 24.536 353.87 24.536C354.574 24.536 355.038 24.68 355.262 24.968C355.518 25.224 355.726 25.704 355.886 26.408C356.494 26.28 357.166 26.216 357.902 26.216C358.67 26.216 359.262 26.408 359.678 26.792C360.094 27.176 360.302 27.72 360.302 28.424C360.302 29.16 360.142 30.44 359.822 32.264C359.47 34.216 359.198 36.088 359.006 37.88C358.814 39.64 358.718 41.624 358.718 43.832C358.718 45.048 358.462 45.928 357.95 46.472C357.47 46.984 356.67 47.24 355.55 47.24C354.462 47.24 353.646 46.984 353.102 46.472C352.59 45.928 352.334 45.064 352.334 43.88L352.382 43.112C351.39 45.864 349.678 47.24 347.246 47.24ZM349.118 42.392C350.014 42.392 350.83 41.768 351.566 40.52C352.302 39.272 352.958 37.048 353.534 33.848L354.446 29C353.134 29.032 351.918 29.544 350.798 30.536C349.678 31.496 348.782 32.776 348.11 34.376C347.438 35.976 347.102 37.672 347.102 39.464C347.102 40.424 347.278 41.16 347.63 41.672C348.014 42.152 348.51 42.392 349.118 42.392Z" stroke="#EAE0D5" stroke-width="2" mask="url(#path-1-outside-1)"/>
</svg>
